<svg viewBox="0 0 20 20" xmlns="http://www.w3.org/2000/svg" fill="#87888C" width="20" height="20">
  <g stroke-width="0"/>
  <g stroke-linecap="round" stroke-linejoin="round"/>
  <path fill="none" d="M0 0h20v20H0z"/>
  <path d="M10 11.667v1.667a5 5 0 0 0-5 5H3.333A6.667 6.667 0 0 1 10 11.667m0-.833c-2.763 0-5-2.238-5-5s2.238-5 5-5 5 2.238 5 5-2.238 5-5 5m0-1.667a3.332 3.332 0 1 0 0-6.666 3.333 3.333 0 1 0 0 6.666m7.5 5h.833v4.167h-6.667v-4.167h.833v-.833a2.5 2.5 0 0 1 5 0zm-1.667 0v-.833a.833.833 0 0 0-1.667 0v.833z"/>
</svg>
