<svg xmlns="http://www.w3.org/2000/svg" width="784" height="801" viewBox="0 0 784 801" version="1.1"><path d="M 394 587.500 L 394 592.025 430.750 591.762 L 467.500 591.500 467.500 587.500 L 467.500 583.500 430.750 583.238 L 394 582.975 394 587.500" stroke="none" fill="#dc2723" fill-rule="evenodd"/><path d="M 369 587.500 L 369 592 381.500 592 L 394 592 394 587.500 L 394 583 381.500 583 L 369 583 369 587.500" stroke="none" fill="#f9ed02" fill-rule="evenodd"/><path d="M 305.286 232.500 C 305.294 235.250, 305.488 236.256, 305.718 234.736 C 305.947 233.216, 305.941 230.966, 305.704 229.736 C 305.467 228.506, 305.279 229.750, 305.286 232.500 M 324.476 322.750 L 324.500 350.500 332.500 350.561 L 340.500 350.621 332.766 350.270 L 325.031 349.920 324.742 322.459 L 324.452 294.999 324.476 322.750 M 485.272 299 C 485.272 301.475, 485.467 302.488, 485.706 301.250 C 485.944 300.012, 485.944 297.988, 485.706 296.750 C 485.467 295.512, 485.272 296.525, 485.272 299 M 474.436 330.500 C 474.436 344.800, 474.577 350.511, 474.748 343.191 C 474.919 335.871, 474.918 324.171, 474.747 317.191 C 474.575 310.211, 474.435 316.200, 474.436 330.500 M 528.423 327.500 C 528.424 339.050, 528.570 343.638, 528.747 337.696 C 528.924 331.753, 528.923 322.303, 528.745 316.696 C 528.567 311.088, 528.422 315.950, 528.423 327.500 M 540.915 316.315 C 541.367 316.767, 543.483 316.984, 545.618 316.797 L 549.500 316.458 544.796 315.975 C 542.210 315.710, 540.463 315.863, 540.915 316.315 M 205.750 373.737 C 208.637 373.939, 213.363 373.939, 216.250 373.737 C 219.137 373.535, 216.775 373.370, 211 373.370 C 205.225 373.370, 202.863 373.535, 205.750 373.737 M 255.250 373.728 C 257.313 373.944, 260.688 373.944, 262.750 373.728 C 264.813 373.513, 263.125 373.336, 259 373.336 C 254.875 373.336, 253.188 373.513, 255.250 373.728 M 288.250 373.728 C 290.313 373.944, 293.688 373.944, 295.750 373.728 C 297.813 373.513, 296.125 373.336, 292 373.336 C 287.875 373.336, 286.188 373.513, 288.250 373.728 M 318.784 373.738 C 321.689 373.941, 326.189 373.939, 328.784 373.734 C 331.378 373.528, 329 373.363, 323.500 373.365 C 318 373.368, 315.878 373.536, 318.784 373.738 M 367.784 373.738 C 370.689 373.941, 375.189 373.939, 377.784 373.734 C 380.378 373.528, 378 373.363, 372.500 373.365 C 367 373.368, 364.878 373.536, 367.784 373.738 M 403.784 373.738 C 406.689 373.941, 411.189 373.939, 413.784 373.734 C 416.378 373.528, 414 373.363, 408.500 373.365 C 403 373.368, 400.878 373.536, 403.784 373.738 M 452.784 373.738 C 455.689 373.941, 460.189 373.939, 462.784 373.734 C 465.378 373.528, 463 373.363, 457.500 373.365 C 452 373.368, 449.878 373.536, 452.784 373.738 M 495.750 373.747 C 502.488 373.920, 513.513 373.920, 520.250 373.747 C 526.987 373.574, 521.475 373.432, 508 373.432 C 494.525 373.432, 489.012 373.574, 495.750 373.747 M 555.750 373.745 C 560.837 373.927, 569.163 373.927, 574.250 373.745 C 579.337 373.564, 575.175 373.415, 565 373.415 C 554.825 373.415, 550.663 373.564, 555.750 373.745 M 312.463 423 C 312.463 449.675, 312.592 460.587, 312.749 447.250 C 312.907 433.913, 312.907 412.087, 312.749 398.750 C 312.592 385.413, 312.463 396.325, 312.463 423 M 383.463 423 C 383.463 449.675, 383.592 460.587, 383.749 447.250 C 383.907 433.913, 383.907 412.087, 383.749 398.750 C 383.592 385.413, 383.463 396.325, 383.463 423 M 397.463 423 C 397.463 449.675, 397.592 460.587, 397.749 447.250 C 397.907 433.913, 397.907 412.087, 397.749 398.750 C 397.592 385.413, 397.463 396.325, 397.463 423 M 268.454 414 C 268.454 435.175, 268.587 443.838, 268.749 433.250 C 268.911 422.663, 268.911 405.338, 268.749 394.750 C 268.587 384.163, 268.454 392.825, 268.454 414 M 482.462 423.500 C 482.463 449.900, 482.592 460.556, 482.749 447.181 C 482.907 433.805, 482.907 412.205, 482.749 399.181 C 482.591 386.156, 482.462 397.100, 482.462 423.500 M 597.422 407 C 597.422 418.275, 597.568 422.887, 597.746 417.250 C 597.924 411.613, 597.924 402.387, 597.746 396.750 C 597.568 391.113, 597.422 395.725, 597.422 407 M 236.360 397 C 236.360 402.225, 236.529 404.363, 236.735 401.750 C 236.941 399.137, 236.941 394.863, 236.735 392.250 C 236.529 389.637, 236.360 391.775, 236.360 397 M 223.250 407.728 C 225.313 407.944, 228.688 407.944, 230.750 407.728 C 232.813 407.513, 231.125 407.336, 227 407.336 C 222.875 407.336, 221.188 407.513, 223.250 407.728 M 236.413 441.500 C 236.414 451.400, 236.564 455.315, 236.746 450.199 C 236.928 445.084, 236.927 436.984, 236.744 432.199 C 236.561 427.415, 236.412 431.600, 236.413 441.500 M 461.984 488.797 L 462.468 494.500 462.795 489.610 C 462.974 486.921, 462.756 484.355, 462.310 483.907 C 461.865 483.460, 461.718 485.660, 461.984 488.797 M 371.447 517 C 371.447 534.875, 371.582 542.188, 371.748 533.250 C 371.914 524.313, 371.914 509.688, 371.748 500.750 C 371.582 491.813, 371.447 499.125, 371.447 517 M 468.382 504.500 C 468.384 511.100, 468.546 513.670, 468.741 510.211 C 468.937 506.752, 468.936 501.352, 468.738 498.211 C 468.540 495.070, 468.380 497.900, 468.382 504.500 M 306.250 506.716 C 307.762 506.945, 310.238 506.945, 311.750 506.716 C 313.262 506.487, 312.025 506.300, 309 506.300 C 305.975 506.300, 304.738 506.487, 306.250 506.716 M 444.264 510.718 C 445.784 510.947, 448.034 510.941, 449.264 510.704 C 450.494 510.467, 449.250 510.279, 446.500 510.286 C 443.750 510.294, 442.744 510.488, 444.264 510.718 M 456.984 517.203 C 456.718 520.340, 456.865 522.540, 457.310 522.093 C 457.756 521.645, 457.974 519.079, 457.795 516.390 L 457.468 511.500 456.984 517.203 M 383.624 520.539 C 383.281 521.432, 383.089 528.539, 383.199 536.332 L 383.398 550.500 383.949 535 C 384.252 526.475, 384.443 519.368, 384.374 519.207 C 384.304 519.046, 383.966 519.645, 383.624 520.539 M 468.310 534.500 C 468.315 537.800, 468.502 539.029, 468.725 537.232 C 468.947 535.435, 468.943 532.735, 468.715 531.232 C 468.486 529.729, 468.304 531.200, 468.310 534.500 M 462.300 544 C 462.300 547.025, 462.487 548.263, 462.716 546.750 C 462.945 545.237, 462.945 542.763, 462.716 541.250 C 462.487 539.737, 462.300 540.975, 462.300 544 M 319.401 584.398 C 319.098 585.186, 318.997 587.107, 319.175 588.666 L 319.500 591.500 344 591.500 L 368.500 591.500 368.500 587.500 L 368.500 583.500 344.225 583.232 C 323.897 583.008, 319.862 583.197, 319.401 584.398" stroke="none" fill="#1e7c44" fill-rule="evenodd"/><path d="M 386.977 190.276 C 369.667 196.178, 356.958 210.485, 352.532 229.053 C 350.338 238.259, 349.315 259.470, 350.970 261.464 C 352.078 262.799, 357.520 263, 392.541 263 C 414.703 263, 433.548 262.727, 434.418 262.393 C 435.662 261.916, 436 260.217, 436 254.452 C 436 250.418, 435.612 246.878, 435.138 246.585 C 434.664 246.293, 430.280 245.599, 425.394 245.044 C 409.519 243.240, 400.333 236.878, 397.887 225.993 C 396.022 217.694, 401.155 208, 407.415 208 C 413.796 208, 416.863 214.336, 416.956 227.715 C 416.991 232.589, 417.378 234.128, 418.750 234.847 C 425.295 238.276, 435.188 222.405, 433.504 211.177 C 433.122 208.630, 431.971 204.904, 430.947 202.895 C 428.281 197.669, 420.944 191.609, 414.935 189.668 C 407.399 187.234, 395.115 187.501, 386.977 190.276 M 390.500 195.402 C 374.880 200.355, 362.347 213.937, 358.556 230.022 C 357.716 233.587, 357.023 241.109, 357.015 246.750 L 357 257 363.617 257 C 370.006 257, 370.211 256.923, 369.576 254.750 C 367.164 246.492, 366.695 240.780, 367.894 234.271 C 371.082 216.971, 383.970 204.407, 400.997 202 C 408.025 201.007, 412.716 202.049, 416.839 205.518 C 420.511 208.608, 421.887 211.951, 422.822 220.051 C 423.531 226.203, 423.629 226.386, 424.939 224.024 C 427.278 219.807, 427.939 214.815, 426.838 209.682 C 425.539 203.622, 420.013 197.874, 413.285 195.582 C 407.767 193.701, 396.153 193.610, 390.500 195.402 M 389.693 216.787 C 385.297 221.644, 383.664 232.810, 386.141 241.078 C 387.664 246.160, 392.258 251.563, 397.347 254.256 C 400.936 256.156, 403.434 256.504, 415.750 256.821 L 430 257.188 430 254.789 C 430 252.573, 429.409 252.293, 422.250 251.118 C 408.466 248.856, 398.665 242.809, 393.695 233.500 C 392.091 230.495, 391.552 227.696, 391.530 222.250 C 391.513 218.262, 391.457 215, 391.405 215 C 391.353 215, 390.582 215.804, 389.693 216.787 M 377.586 224.509 C 376.659 225.924, 375.168 230.050, 374.273 233.678 C 372.939 239.083, 372.848 241.245, 373.771 245.644 C 375.831 255.466, 376.686 256.457, 383.393 256.804 L 389.269 257.108 386.586 253.920 C 380.298 246.447, 377.498 236.897, 378.944 227.849 C 379.414 224.907, 379.680 222.373, 379.535 222.219 C 379.390 222.064, 378.513 223.095, 377.586 224.509 M 315.378 238 C 315.378 244.325, 315.541 246.912, 315.739 243.750 C 315.937 240.588, 315.937 235.412, 315.739 232.250 C 315.541 229.088, 315.378 231.675, 315.378 238 M 329.374 237.500 C 329.376 243.550, 329.541 245.896, 329.740 242.713 C 329.939 239.531, 329.937 234.581, 329.736 231.713 C 329.535 228.846, 329.372 231.450, 329.374 237.500 M 455.250 230.242 C 455.508 233.592, 458.190 235.210, 460.182 233.218 C 460.808 232.592, 460.264 232.418, 458.647 232.727 C 456.490 233.139, 456.063 232.775, 455.571 230.103 L 455 227 455.250 230.242 M 469.185 232.050 C 469.083 235.103, 468.552 238.142, 468.004 238.804 C 467.456 239.466, 467.706 239.401, 468.561 238.660 C 469.710 237.664, 470.018 235.903, 469.743 231.907 L 469.370 226.500 469.185 232.050 M 320.439 238.500 C 320.495 245.813, 320.672 246.500, 322.500 246.500 C 324.333 246.500, 324.505 245.812, 324.565 238.247 L 324.629 229.994 324.274 237.997 C 324.005 244.075, 323.578 246, 322.500 246 C 321.427 246, 320.995 244.111, 320.730 238.250 L 320.379 230.500 320.439 238.500 M 456.067 239.419 C 454.499 241.309, 455.077 251.259, 456.775 251.596 C 457.476 251.736, 457.589 251.621, 457.025 251.342 C 455.594 250.632, 455.738 240.662, 457.200 239.200 C 457.860 238.540, 458.140 238, 457.822 238 C 457.505 238, 456.715 238.638, 456.067 239.419 M 478.336 241 C 478.487 243.300, 478.900 243.506, 483.500 243.578 L 488.500 243.656 483.813 243.278 C 479.951 242.966, 479.042 242.512, 478.649 240.700 C 478.248 238.848, 478.198 238.895, 478.336 241 M 291.286 245.500 C 291.294 248.250, 291.488 249.256, 291.718 247.736 C 291.947 246.216, 291.941 243.966, 291.704 242.736 C 291.467 241.506, 291.279 242.750, 291.286 245.500 M 299 245.583 C 297.213 246.575, 296.982 246.975, 298.191 246.985 C 299.121 246.993, 300.186 246.508, 300.558 245.906 C 300.930 245.304, 302.293 245.014, 303.587 245.261 C 304.881 245.509, 305.702 245.326, 305.411 244.856 C 304.664 243.647, 301.929 243.958, 299 245.583 M 463 245.564 C 461.206 246.573, 460.977 246.975, 462.191 246.985 C 463.121 246.993, 464.160 246.550, 464.500 246 C 464.840 245.450, 466.041 245, 467.168 245 C 468.923 245, 469.160 245.505, 468.810 248.499 C 468.576 250.505, 468.776 251.624, 469.279 251.121 C 469.762 250.638, 470.009 248.951, 469.828 247.372 C 469.446 244.030, 466.916 243.360, 463 245.564 M 242.500 293.597 C 247.103 294.346, 254.777 294.444, 254.347 293.750 C 254.091 293.337, 250.871 293.061, 247.191 293.136 C 243.511 293.211, 241.400 293.419, 242.500 293.597 M 278.750 293.744 C 283.288 293.929, 290.712 293.929, 295.250 293.744 C 299.788 293.559, 296.075 293.407, 287 293.407 C 277.925 293.407, 274.212 293.559, 278.750 293.744 M 315 293.563 C 318.508 294.337, 324.794 294.475, 324.357 293.768 C 324.096 293.346, 321.546 293.052, 318.691 293.116 C 315.836 293.180, 314.175 293.381, 315 293.563 M 368.653 293.750 C 368.397 294.163, 370.508 294.370, 373.344 294.211 C 381.868 293.734, 382.907 293.281, 375.809 293.136 C 372.129 293.061, 368.909 293.337, 368.653 293.750 M 406.655 293.750 C 406.400 294.163, 408.805 294.500, 412 294.500 C 415.195 294.500, 417.600 294.163, 417.345 293.750 C 417.091 293.337, 414.685 293, 412 293 C 409.315 293, 406.909 293.337, 406.655 293.750 M 431.655 293.750 C 431.400 294.163, 433.805 294.500, 437 294.500 C 440.195 294.500, 442.600 294.163, 442.345 293.750 C 442.091 293.337, 439.685 293, 437 293 C 434.315 293, 431.909 293.337, 431.655 293.750 M 458 293.677 C 471.307 294.399, 485.776 294.438, 485.348 293.750 C 485.092 293.337, 477.596 293.085, 468.691 293.189 C 459.786 293.293, 454.975 293.513, 458 293.677 M 498.264 293.718 C 499.784 293.947, 502.034 293.941, 503.264 293.704 C 504.494 293.467, 503.250 293.279, 500.500 293.286 C 497.750 293.294, 496.744 293.488, 498.264 293.718 M 529.750 293.732 C 532.087 293.943, 535.913 293.943, 538.250 293.732 C 540.587 293.522, 538.675 293.349, 534 293.349 C 529.325 293.349, 527.413 293.522, 529.750 293.732 M 451.163 298.550 C 450.965 304.690, 452.111 306, 457.684 306 L 461.968 306 462.251 333.250 L 462.534 360.500 462.767 332.802 L 463 305.105 457.750 304.802 L 452.500 304.500 451.913 299 L 451.326 293.500 451.163 298.550 M 269.116 299.191 C 269.052 301.771, 269.356 304.102, 269.791 304.371 C 270.226 304.640, 270.425 303.204, 270.233 301.180 C 269.647 294.996, 269.238 294.267, 269.116 299.191 M 304.272 299 C 304.272 301.475, 304.467 302.488, 304.706 301.250 C 304.944 300.012, 304.944 297.988, 304.706 296.750 C 304.467 295.512, 304.272 296.525, 304.272 299 M 312.448 327.500 C 312.447 345.650, 312.582 353.216, 312.748 344.314 C 312.913 335.411, 312.914 320.561, 312.749 311.314 C 312.583 302.066, 312.448 309.350, 312.448 327.500 M 494.448 328 C 494.448 346.425, 494.583 353.962, 494.748 344.750 C 494.913 335.538, 494.913 320.462, 494.748 311.250 C 494.583 302.038, 494.448 309.575, 494.448 328 M 505.999 328.201 C 505.725 346.736, 505.844 361.558, 506.264 361.137 C 506.684 360.716, 506.909 345.551, 506.763 327.436 L 506.498 294.500 505.999 328.201 M 274.264 305.718 C 275.784 305.947, 278.034 305.941, 279.264 305.704 C 280.494 305.467, 279.250 305.279, 276.500 305.286 C 273.750 305.294, 272.744 305.488, 274.264 305.718 M 295.264 305.718 C 296.784 305.947, 299.034 305.941, 300.264 305.704 C 301.494 305.467, 300.250 305.279, 297.500 305.286 C 294.750 305.294, 293.744 305.488, 295.264 305.718 M 477.264 305.718 C 478.784 305.947, 481.034 305.941, 482.264 305.704 C 483.494 305.467, 482.250 305.279, 479.500 305.286 C 476.750 305.294, 475.744 305.488, 477.264 305.718 M 529.629 305.791 C 529.360 306.226, 530.796 306.418, 532.820 306.219 C 538.354 305.672, 539.013 305.168, 534.309 305.079 C 532.004 305.036, 529.898 305.356, 529.629 305.791 M 539.272 311 C 539.272 313.475, 539.467 314.488, 539.706 313.250 C 539.944 312.012, 539.944 309.988, 539.706 308.750 C 539.467 307.512, 539.272 308.525, 539.272 311 M 539.272 344 C 539.272 346.475, 539.467 347.488, 539.706 346.250 C 539.944 345.012, 539.944 342.988, 539.706 341.750 C 539.467 340.512, 539.272 341.525, 539.272 344 M 345.982 356.702 C 345.717 359.563, 345.866 361.536, 346.314 361.088 C 346.762 360.639, 346.979 358.298, 346.796 355.886 L 346.463 351.500 345.982 356.702 M 533.343 382.500 C 533.346 386.900, 533.522 388.576, 533.733 386.224 C 533.945 383.872, 533.942 380.272, 533.727 378.224 C 533.512 376.176, 533.339 378.100, 533.343 382.500 M 545.225 423.191 C 545.101 449.971, 545.337 472.091, 545.750 472.346 C 546.432 472.768, 546.419 436.918, 545.722 392 C 545.573 382.375, 545.349 396.411, 545.225 423.191 M 469.462 423.500 C 469.463 449.900, 469.592 460.556, 469.749 447.181 C 469.907 433.805, 469.907 412.205, 469.749 399.181 C 469.591 386.156, 469.462 397.100, 469.462 423.500 M 185.413 405.500 C 185.414 415.400, 185.564 419.315, 185.746 414.199 C 185.928 409.084, 185.927 400.984, 185.744 396.199 C 185.561 391.415, 185.412 395.600, 185.413 405.500 M 205.643 391.768 C 205.382 392.191, 207.043 392.392, 209.334 392.216 C 216.063 391.696, 216.882 391.241, 211.309 391.116 C 208.454 391.052, 205.904 391.346, 205.643 391.768 M 508.797 391.745 C 513.361 391.930, 520.561 391.929, 524.797 391.742 C 529.034 391.555, 525.300 391.404, 516.500 391.405 C 507.700 391.406, 504.234 391.559, 508.797 391.745 M 566.728 391.722 C 568.503 391.943, 571.653 391.946, 573.728 391.730 C 575.802 391.513, 574.350 391.333, 570.500 391.328 C 566.650 391.324, 564.952 391.501, 566.728 391.722 M 204.355 402.500 C 204.352 407.450, 204.521 409.601, 204.731 407.280 C 204.940 404.959, 204.943 400.909, 204.736 398.280 C 204.530 395.651, 204.358 397.550, 204.355 402.500 M 526.336 423 C 526.336 427.125, 526.513 428.813, 526.728 426.750 C 526.944 424.688, 526.944 421.313, 526.728 419.250 C 526.513 417.188, 526.336 418.875, 526.336 423 M 364.867 423.750 C 364.665 424.712, 364.738 435.850, 365.028 448.500 L 365.557 471.500 365.778 446.750 C 365.984 423.765, 365.806 419.267, 364.867 423.750 M 415.243 447 L 415.426 471.500 415.963 448.500 C 416.258 435.850, 416.176 424.825, 415.780 424 C 415.385 423.175, 415.143 433.525, 415.243 447 M 330.243 447.500 L 330.425 471.500 330.962 449 C 331.258 436.625, 331.176 425.825, 330.780 425 C 330.385 424.175, 330.143 434.300, 330.243 447.500 M 506.789 432.741 C 510.248 432.937, 515.648 432.936, 518.789 432.738 C 521.930 432.540, 519.100 432.380, 512.500 432.382 C 505.900 432.384, 503.330 432.546, 506.789 432.741 M 186.200 439.200 C 185.412 439.988, 185.066 443.509, 185.191 449.450 L 185.383 458.500 185.941 449 L 186.500 439.500 195.157 439.500 C 199.918 439.500, 203.604 439.163, 203.348 438.750 C 202.564 437.488, 187.517 437.883, 186.200 439.200 M 204.310 446.500 C 204.315 449.800, 204.502 451.029, 204.725 449.232 C 204.947 447.435, 204.943 444.735, 204.715 443.232 C 204.486 441.729, 204.304 443.200, 204.310 446.500 M 269.903 454.307 C 270.349 454.751, 273.141 454.970, 276.107 454.793 L 281.500 454.472 275.296 453.986 C 271.884 453.719, 269.457 453.863, 269.903 454.307 M 208.250 454.716 C 209.762 454.945, 212.238 454.945, 213.750 454.716 C 215.262 454.487, 214.025 454.300, 211 454.300 C 207.975 454.300, 206.738 454.487, 208.250 454.716 M 508.296 454.744 C 512.583 454.932, 519.333 454.931, 523.296 454.742 C 527.258 454.552, 523.750 454.399, 515.500 454.400 C 507.250 454.401, 504.008 454.556, 508.296 454.744 M 532.500 464 C 532.500 468.845, 532.837 472.600, 533.250 472.345 C 533.663 472.091, 534 468.335, 534 464 C 534 459.665, 533.663 455.909, 533.250 455.655 C 532.837 455.400, 532.500 459.155, 532.500 464 M 314.990 499.205 C 314.720 503.442, 314.860 506.548, 315.299 506.106 C 315.739 505.663, 315.959 502.196, 315.789 498.401 L 315.480 491.500 314.990 499.205 M 481.667 496.667 C 480.749 497.584, 480.822 507.772, 481.750 508.345 C 482.163 508.600, 482.500 505.927, 482.500 502.405 C 482.500 498.882, 482.462 496, 482.417 496 C 482.371 496, 482.033 496.300, 481.667 496.667 M 297.652 512.750 C 297.395 513.163, 299.956 513.374, 303.343 513.220 C 313.695 512.750, 314.921 512.307, 306.309 512.150 C 301.804 512.067, 297.908 512.337, 297.652 512.750 M 315.397 528 C 315.397 535.975, 315.553 539.237, 315.743 535.250 C 315.932 531.263, 315.932 524.737, 315.743 520.750 C 315.553 516.763, 315.397 520.025, 315.397 528 M 444.776 523.733 C 447.128 523.945, 450.728 523.942, 452.776 523.727 C 454.824 523.512, 452.900 523.339, 448.500 523.343 C 444.100 523.346, 442.424 523.522, 444.776 523.733 M 472.250 526.716 C 473.762 526.945, 476.238 526.945, 477.750 526.716 C 479.262 526.487, 478.025 526.300, 475 526.300 C 471.975 526.300, 470.738 526.487, 472.250 526.716 M 481.272 532 C 481.272 534.475, 481.467 535.487, 481.706 534.250 C 481.944 533.013, 481.944 530.987, 481.706 529.750 C 481.467 528.513, 481.272 529.525, 481.272 532 M 337.654 537.750 C 337.400 538.163, 339.285 538.368, 341.845 538.208 C 349.781 537.709, 350.772 537.278, 344.309 537.136 C 340.904 537.061, 337.909 537.337, 337.654 537.750 M 445.750 537.737 C 448.637 537.939, 453.363 537.939, 456.250 537.737 C 459.137 537.535, 456.775 537.370, 451 537.370 C 445.225 537.370, 442.863 537.535, 445.750 537.737 M 292.750 550.732 C 295.087 550.943, 298.913 550.943, 301.250 550.732 C 303.587 550.522, 301.675 550.349, 297 550.349 C 292.325 550.349, 290.413 550.522, 292.750 550.732 M 326.250 550.716 C 327.762 550.945, 330.238 550.945, 331.750 550.716 C 333.262 550.487, 332.025 550.300, 329 550.300 C 325.975 550.300, 324.738 550.487, 326.250 550.716 M 356.250 550.716 C 357.762 550.945, 360.238 550.945, 361.750 550.716 C 363.262 550.487, 362.025 550.300, 359 550.300 C 355.975 550.300, 354.738 550.487, 356.250 550.716 M 375.250 550.716 C 376.762 550.945, 379.238 550.945, 380.750 550.716 C 382.262 550.487, 381.025 550.300, 378 550.300 C 374.975 550.300, 373.738 550.487, 375.250 550.716 M 410.250 550.716 C 411.762 550.945, 414.238 550.945, 415.750 550.716 C 417.262 550.487, 416.025 550.300, 413 550.300 C 409.975 550.300, 408.738 550.487, 410.250 550.716 M 436.750 550.744 C 441.288 550.929, 448.712 550.929, 453.250 550.744 C 457.788 550.559, 454.075 550.407, 445 550.407 C 435.925 550.407, 432.212 550.559, 436.750 550.744 M 482.250 550.728 C 484.313 550.944, 487.688 550.944, 489.750 550.728 C 491.813 550.513, 490.125 550.336, 486 550.336 C 481.875 550.336, 480.188 550.513, 482.250 550.728 M 337.750 582.744 C 342.288 582.929, 349.712 582.929, 354.250 582.744 C 358.788 582.559, 355.075 582.407, 346 582.407 C 336.925 582.407, 333.212 582.559, 337.750 582.744 M 318.667 583.667 C 317.548 584.785, 317.924 590.524, 319.200 591.800 C 319.860 592.460, 321.097 592.971, 321.950 592.937 C 322.855 592.900, 322.520 592.481, 321.146 591.930 C 319.117 591.118, 318.844 590.434, 319.172 586.994 C 319.381 584.797, 319.503 583, 319.443 583 C 319.383 583, 319.033 583.300, 318.667 583.667 M 334.750 592.746 C 340.387 592.924, 349.613 592.924, 355.250 592.746 C 360.887 592.568, 356.275 592.422, 345 592.422 C 333.725 592.422, 329.113 592.568, 334.750 592.746 M 321.365 623.500 C 321.368 629, 321.536 631.122, 321.738 628.216 C 321.941 625.311, 321.939 620.811, 321.734 618.216 C 321.528 615.622, 321.363 618, 321.365 623.500 M 398.365 623.500 C 398.368 629, 398.536 631.122, 398.738 628.216 C 398.941 625.311, 398.939 620.811, 398.734 618.216 C 398.528 615.622, 398.363 618, 398.365 623.500 M 421.365 623.500 C 421.368 629, 421.536 631.122, 421.738 628.216 C 421.941 625.311, 421.939 620.811, 421.734 618.216 C 421.528 615.622, 421.363 618, 421.365 623.500 M 344.250 619.242 C 344.425 621.509, 345.032 622.531, 346.270 622.640 C 347.396 622.740, 347.508 622.629, 346.578 622.336 C 345.775 622.083, 344.866 620.554, 344.559 618.938 C 344.026 616.135, 344.011 616.149, 344.250 619.242 M 344.398 625.405 C 344.102 626.177, 344.016 628.315, 344.209 630.155 C 344.515 633.088, 344.617 632.915, 345.036 628.750 C 345.527 623.879, 345.346 622.934, 344.398 625.405" stroke="none" fill="#4ea8d1" fill-rule="evenodd"/><path d="M 294.250 225.031 C 291.136 226.283, 290.925 233, 294 233 C 295.100 233, 296 232.380, 296 231.622 C 296 229.199, 298.567 227.773, 299.944 229.433 C 302.165 232.109, 300.741 235.337, 296.250 237.810 C 292.060 240.117, 292 240.226, 292 245.575 L 292 251 298.500 251 L 305 251 305 248 C 305 245.667, 304.556 245, 303 245 C 301.900 245, 301 245.481, 301 246.070 C 301 246.658, 299.988 246.995, 298.750 246.820 C 294.917 246.275, 295.954 242.840, 300.750 240.195 L 305 237.850 305 231.900 C 305 226.434, 304.792 225.871, 302.435 224.975 C 299.360 223.806, 297.262 223.821, 294.250 225.031 M 317.750 225.025 C 316.251 225.945, 316 227.711, 316 237.350 C 316 244.767, 316.409 249.009, 317.200 249.800 C 318.754 251.354, 326.246 251.354, 327.800 249.800 C 329.192 248.408, 329.472 228.293, 328.129 226.174 C 327.026 224.434, 319.983 223.655, 317.750 225.025 M 459 224.683 C 456.858 225.564, 456.033 227.102, 456.015 230.250 C 456.004 232.338, 456.481 233, 458 233 C 459.100 233, 460 232.380, 460 231.622 C 460 229.199, 462.567 227.773, 463.944 229.433 C 466.165 232.109, 464.741 235.337, 460.250 237.810 C 456.060 240.117, 456 240.226, 456 245.575 L 456 251 462.500 251 L 469 251 469 248 C 469 245.667, 468.556 245, 467 245 C 465.900 245, 465 245.481, 465 246.070 C 465 246.658, 463.988 246.995, 462.750 246.820 C 458.917 246.275, 459.954 242.840, 464.750 240.195 C 468.905 237.903, 469 237.734, 468.985 232.675 C 468.976 229.829, 468.602 226.922, 468.154 226.215 C 467.226 224.753, 461.258 223.755, 459 224.683 M 488.417 224.765 C 486.689 225.937, 479 239.445, 479 241.308 C 479 242.672, 479.970 243, 484 243 L 489 243 489 247.070 C 489 250.718, 489.233 251.106, 491.250 250.820 C 493.013 250.569, 493.572 249.744, 493.832 247.004 C 494.014 245.081, 494.689 242.871, 495.332 242.091 C 496.229 241.004, 496.210 240.577, 495.250 240.254 C 494.563 240.023, 494 238.746, 494 237.417 C 494 235.506, 493.477 235, 491.500 235 C 489.500 235, 489 235.500, 489 237.500 C 489 239.010, 488.429 240, 487.559 240 C 484.666 240, 484.900 237.776, 488.412 231.881 C 490.385 228.567, 492 225.439, 492 224.928 C 492 223.824, 489.942 223.731, 488.417 224.765 M 321.116 228.928 C 320.294 229.436, 320.006 232.330, 320.207 238.086 C 320.473 245.736, 320.682 246.500, 322.500 246.500 C 324.323 246.500, 324.525 245.738, 324.787 237.871 C 325.007 231.262, 324.752 229.119, 323.696 228.714 C 322.939 228.423, 321.778 228.519, 321.116 228.928 M 240.501 294.999 C 239.359 296.846, 225.988 359.486, 226.465 360.750 C 226.990 362.140, 233.763 362.437, 235.778 361.158 C 236.482 360.712, 237.574 357.569, 238.205 354.173 L 239.353 348 247.106 348 L 254.858 348 256.037 353.750 C 256.686 356.913, 257.673 360.063, 258.231 360.750 C 258.789 361.438, 261.215 362, 263.622 362 C 267.253 362, 268 361.676, 268 360.105 C 268 358.423, 255.667 300.162, 254.377 295.750 C 253.959 294.320, 252.700 294, 247.492 294 C 243.986 294, 240.840 294.450, 240.501 294.999 M 270.412 295.370 C 270.112 296.151, 270.009 298.524, 270.183 300.645 L 270.500 304.500 275.750 304.802 L 281 305.105 281 332.945 C 281 363.438, 280.703 362, 287 362 C 293.297 362, 293 363.438, 293 332.945 L 293 305.105 298.250 304.802 L 303.500 304.500 303.500 299.500 L 303.500 294.500 287.228 294.225 C 273.912 294, 270.857 294.208, 270.412 295.370 M 313.667 294.667 C 313.300 295.033, 313 309.828, 313 327.544 C 313 354.111, 313.248 359.961, 314.416 360.931 C 315.400 361.747, 320.366 362.013, 330.666 361.803 L 345.500 361.500 345.801 356.284 L 346.102 351.069 335.301 350.784 L 324.500 350.500 324.234 322.250 L 323.969 294 319.151 294 C 316.501 294, 314.033 294.300, 313.667 294.667 M 368.110 297.750 C 364.451 311.948, 354.827 359.108, 355.325 360.405 C 355.968 362.081, 362.425 362.655, 364.651 361.235 C 365.285 360.831, 366.356 357.688, 367.031 354.250 L 368.260 348 376 348 L 383.740 348 384.969 354.250 C 385.644 357.688, 386.715 360.831, 387.349 361.235 C 388.999 362.288, 395.776 362.172, 396.451 361.079 C 396.764 360.572, 393.866 345.515, 390.010 327.618 C 386.155 309.721, 383 294.836, 383 294.539 C 383 294.243, 379.867 294, 376.039 294 L 369.077 294 368.110 297.750 M 406.712 294.622 C 406.320 295.013, 406 309.828, 406 327.544 C 406 353.917, 406.253 359.965, 407.398 360.916 C 409.096 362.325, 415.741 362.017, 417.026 360.469 C 417.535 359.856, 418.075 351.512, 418.226 341.927 L 418.500 324.500 424.892 342.500 C 428.407 352.400, 431.782 360.831, 432.392 361.235 C 434.155 362.404, 439.459 362.116, 441.324 360.750 C 442.882 359.609, 443.007 356.666, 442.765 327 L 442.500 294.500 437 294.500 L 431.500 294.500 431.191 313 L 430.882 331.500 424.125 313 L 417.369 294.500 412.396 294.205 C 409.661 294.043, 407.103 294.230, 406.712 294.622 M 452.198 299.250 L 452.500 304.500 457.750 304.802 L 463 305.105 463 333.033 L 463 360.962 465.379 361.559 C 466.688 361.887, 469.050 362.009, 470.629 361.828 L 473.500 361.500 473.765 333.302 L 474.031 305.103 479.265 304.802 L 484.500 304.500 484.802 299.250 L 485.105 294 468.500 294 L 451.895 294 452.198 299.250 M 495.237 327.750 L 495.500 361.500 498.371 361.828 C 499.950 362.009, 502.312 361.887, 503.621 361.559 L 506 360.962 506 327.481 L 506 294 500.487 294 L 494.973 294 495.237 327.750 M 520.766 296.916 L 517.500 299.833 517.226 326.166 C 516.982 349.736, 517.139 352.867, 518.726 356 C 520.867 360.224, 524.951 361.866, 533.500 361.938 C 546.931 362.052, 550.372 359.020, 550.451 347 L 550.500 339.500 545.500 339.500 L 540.500 339.500 540.203 344 C 539.871 349.034, 538.095 351, 533.880 351 C 528.304 351, 527.999 349.785, 528.015 327.679 C 528.024 316.580, 528.405 306.910, 528.862 306.189 C 529.412 305.321, 531.351 304.983, 534.597 305.189 L 539.500 305.500 540 310.500 L 540.500 315.500 545.500 315.500 L 550.500 315.500 550.445 307.619 C 550.392 300.039, 550.267 299.627, 547.179 296.869 C 544.099 294.117, 543.562 294, 534 294 C 524.401 294, 523.911 294.108, 520.766 296.916 M 246.582 311.107 C 245.849 313.306, 242 334.502, 242 336.342 C 242 337.687, 243.050 338, 247.567 338 C 252.399 338, 253.067 337.769, 252.620 336.250 C 252.337 335.288, 251.142 329.100, 249.964 322.500 C 247.745 310.055, 247.363 308.768, 246.582 311.107 M 373.523 320.750 C 372.581 326.113, 371.451 332.188, 371.012 334.250 L 370.213 338 375.606 338 C 379.245 338, 381.006 337.593, 381.018 336.750 C 381.061 333.834, 376.537 311, 375.917 311 C 375.542 311, 374.465 315.387, 373.523 320.750 M 193.990 376.250 C 186.794 381.147, 186.537 382.040, 186.160 403.411 C 185.866 420.122, 186.035 422.893, 187.438 424.295 C 188.327 425.184, 195.584 427.978, 203.563 430.503 L 218.071 435.094 217.786 444.797 L 217.500 454.500 211.281 454.797 C 204.192 455.135, 204.240 455.197, 203.759 445 L 203.500 439.500 195 439.500 L 186.500 439.500 186.500 450.500 C 186.500 468.695, 190.063 472.251, 208.902 472.858 C 224.815 473.371, 230.693 471.298, 234.595 463.800 C 236.506 460.127, 236.642 423.756, 234.750 422.249 C 234.063 421.701, 226.863 419.070, 218.750 416.402 L 204 411.552 204 402.398 C 204 391.523, 204.557 390.759, 212.169 391.195 L 217.500 391.500 218 399 L 218.500 406.500 227.335 406.790 L 236.169 407.080 235.835 395.110 C 235.549 384.903, 235.195 382.723, 233.429 380.319 C 229.531 375.013, 225.930 374.003, 210.898 374.002 C 198.437 374, 197.018 374.189, 193.990 376.250 M 250.640 376.212 C 249.741 379.568, 249.982 452.663, 250.910 458.312 C 251.765 463.511, 254.032 467.188, 258.385 470.438 C 260.870 472.294, 262.565 472.500, 275.323 472.500 C 291.380 472.500, 294.666 471.430, 298.465 464.965 C 300.428 461.623, 300.500 459.951, 300.500 418 L 300.500 374.500 292 374.500 L 283.500 374.500 283 414.500 L 282.500 454.500 276.604 454.804 C 273.225 454.979, 270.237 454.638, 269.604 454.005 C 268.854 453.256, 268.340 440.341, 268 413.701 L 267.500 374.500 259.377 374.212 C 251.644 373.937, 251.224 374.033, 250.640 376.212 M 313.241 423.216 L 313.500 472.500 320.340 472.798 C 324.522 472.980, 327.728 472.641, 328.590 471.925 C 329.732 470.978, 330.006 466.072, 330.030 446.128 C 330.047 432.358, 330.430 422.161, 330.898 423 C 331.358 423.825, 333.164 431.250, 334.911 439.500 C 336.657 447.750, 338.800 457.875, 339.673 462 C 341.930 472.662, 342.184 473, 347.976 473 C 350.674 473, 353.149 472.567, 353.476 472.038 C 353.803 471.510, 356.530 460.047, 359.535 446.567 C 362.541 433.086, 365.101 421.706, 365.225 421.278 C 365.348 420.850, 365.686 432.200, 365.975 446.500 L 366.500 472.500 374.500 472.500 L 382.500 472.500 382.759 423.250 L 383.019 374 372.485 374 C 362.476 374, 361.908 374.112, 361.108 376.250 C 360.645 377.488, 357.672 390.200, 354.501 404.500 C 351.331 418.800, 348.446 430.827, 348.091 431.227 C 347.736 431.628, 344.532 419.028, 340.973 403.227 L 334.500 374.500 323.741 374.216 L 312.981 373.932 313.241 423.216 M 398.241 423.250 L 398.500 472.500 406.500 472.500 L 414.500 472.500 415.025 446.500 C 415.314 432.200, 415.652 420.786, 415.775 421.136 C 415.899 421.487, 418.451 432.853, 421.447 446.396 C 424.443 459.939, 427.169 471.465, 427.506 472.010 C 428.393 473.445, 437.580 473.232, 438.703 471.750 C 439.224 471.063, 441.779 460.375, 444.381 448 C 446.983 435.625, 449.506 424.600, 449.988 423.500 C 450.523 422.280, 450.891 431.075, 450.932 446.050 C 450.981 463.732, 451.336 470.936, 452.200 471.800 C 453.911 473.511, 466.440 473.380, 467.887 471.636 C 468.704 470.652, 468.947 456.912, 468.760 422.386 L 468.500 374.500 457.530 374.500 L 446.560 374.500 440.096 403.266 C 436.540 419.087, 433.342 431.687, 432.989 431.266 C 432.636 430.845, 429.772 418.800, 426.625 404.500 C 423.478 390.200, 420.485 377.488, 419.973 376.250 C 419.092 374.118, 418.491 374, 408.512 374 L 397.981 374 398.241 423.250 M 483.241 423.250 L 483.500 472.500 508 472.500 L 532.500 472.500 532.795 464.587 C 533.006 458.932, 532.720 456.439, 531.795 455.852 C 531.083 455.400, 523.862 455.024, 515.750 455.015 L 501 455 501 443.500 L 501 432 512.893 432 C 526.476 432, 526 432.327, 526 423 C 526 413.673, 526.476 414, 512.893 414 L 501 414 501 402.525 L 501 391.051 516.750 390.775 L 532.500 390.500 532.790 382.250 L 533.081 374 508.031 374 L 482.981 374 483.241 423.250 M 546.241 423.194 L 546.500 472.500 555 472.500 L 563.500 472.500 563.775 456.250 L 564.050 440 567.454 440 C 571.137 440, 571.220 440.163, 574.994 455 C 575.623 457.475, 577.026 462.538, 578.112 466.250 L 580.085 473 588.074 473 C 593.987 473, 596.202 472.637, 596.598 471.605 C 596.893 470.837, 595.291 463.154, 593.040 454.531 L 588.946 438.853 591.953 436.044 C 593.607 434.499, 595.419 432.028, 595.980 430.552 C 596.557 429.035, 596.999 418.667, 596.998 406.685 C 596.997 383.381, 596.458 380.815, 590.680 376.571 C 588.076 374.659, 586.255 374.477, 566.920 374.194 L 545.981 373.888 546.241 423.194 M 564 406.500 L 564 422.088 571.250 421.794 L 578.500 421.500 578.500 406.500 L 578.500 391.500 571.250 391.206 L 564 390.912 564 406.500 M 287.094 484.306 C 285.220 484.963, 282.745 486.769, 281.594 488.321 C 279.643 490.949, 279.478 492.654, 279.176 513.321 C 278.804 538.733, 279.224 542.985, 282.475 546.769 C 284.740 549.404, 285.224 549.512, 296.302 549.833 L 307.782 550.167 311.141 547.167 L 314.500 544.168 314.500 528.834 L 314.500 513.500 306.587 513.205 C 297.862 512.880, 297.041 513.348, 297.015 518.668 C 296.993 523.364, 297.933 525, 300.655 525 C 303.014 525, 303.085 525.209, 302.798 531.250 L 302.500 537.500 297.500 537.500 L 292.500 537.500 292.500 517 L 292.500 496.500 297.500 496.500 L 302.500 496.500 302.805 501.250 L 303.110 506 309.055 506 L 315 506 314.996 498.750 C 314.990 486.270, 311.182 482.951, 297 483.062 C 293.425 483.090, 288.967 483.650, 287.094 484.306 M 337.349 483.765 C 336.255 484.463, 323 543.894, 323 548.100 C 323 549.901, 323.567 550.070, 328.717 549.800 L 334.433 549.500 335.273 545.500 C 335.735 543.300, 336.327 540.467, 336.587 539.205 C 337.032 537.050, 337.469 536.928, 343.739 537.205 L 350.417 537.500 351.204 541.500 C 352.996 550.608, 352.438 550, 359.019 550 C 363.569 550, 365 549.654, 365 548.554 C 365 547.759, 362.781 536.847, 360.068 524.304 C 357.355 511.762, 354.357 497.900, 353.406 493.500 C 352.455 489.100, 351.244 484.938, 350.716 484.250 C 349.675 482.896, 339.300 482.520, 337.349 483.765 M 372.667 483.667 C 372.300 484.033, 372 499.108, 372 517.167 L 372 550 377.500 550 L 383 550 383.015 535.750 C 383.024 527.913, 383.393 520.928, 383.837 520.230 C 384.324 519.462, 386.001 525.006, 388.072 534.230 L 391.500 549.500 395.461 549.500 L 399.422 549.500 401.109 542 C 402.037 537.875, 403.630 530.900, 404.648 526.500 L 406.500 518.500 407 534 L 407.500 549.500 412.905 549.808 C 416.553 550.015, 418.580 549.690, 419.140 548.808 C 420.378 546.855, 420.215 487.270, 418.965 484.934 C 418.125 483.365, 416.851 483.003, 412.215 483.015 C 409.072 483.024, 405.989 483.361, 405.365 483.765 C 404.741 484.169, 402.491 492.289, 400.365 501.809 C 398.239 511.328, 396.050 519.117, 395.500 519.117 C 394.950 519.117, 392.761 511.328, 390.635 501.809 C 388.509 492.289, 386.259 484.169, 385.635 483.765 C 384.214 482.845, 373.569 482.764, 372.667 483.667 M 429.236 483.819 C 428.251 484.455, 428.030 491.793, 428.236 517.068 L 428.500 549.500 445.250 549.774 L 462 550.048 462 544.024 L 462 538 451.500 538 L 441 538 441 530.542 L 441 523.084 448.750 522.792 L 456.500 522.500 456.800 516.750 L 457.100 511 449.050 511 L 441 511 441 503.535 L 441 496.070 451.250 495.785 L 461.500 495.500 461.500 489.500 L 461.500 483.500 446 483.251 C 437.475 483.115, 429.931 483.370, 429.236 483.819 M 476.212 484.073 C 470.347 485.863, 469.008 489.600, 469.004 504.191 C 469.001 513.117, 469.364 517.122, 470.228 517.691 C 470.903 518.136, 475.515 519.888, 480.478 521.584 L 489.500 524.668 489.500 531.084 L 489.500 537.500 485.500 537.500 L 481.500 537.500 481 532.500 L 480.500 527.500 475 527.500 L 469.500 527.500 469.204 534.252 C 468.862 542.073, 470.714 547.093, 474.595 548.861 C 477.651 550.254, 492.903 550.368, 496.434 549.025 C 501.562 547.075, 502.992 542.793, 502.996 529.372 C 502.999 520.861, 502.627 516.950, 501.750 516.256 C 501.063 515.712, 496.092 513.813, 490.705 512.036 L 480.910 508.805 481.205 502.652 L 481.500 496.500 485.750 496.193 L 490 495.885 490 500.836 C 490 506.284, 490.755 507, 496.500 507 C 502.518 507, 503 506.428, 503 499.294 C 503 492.121, 501.208 487.236, 497.796 485.104 C 495.058 483.395, 480.685 482.708, 476.212 484.073 M 341.655 513.153 C 339.162 525.713, 339.217 526, 344.108 526 C 347.865 526, 348.170 525.807, 347.667 523.750 C 347.364 522.513, 346.586 518.350, 345.937 514.500 C 344.180 504.080, 343.499 503.866, 341.655 513.153 M 322.212 623.250 L 322.500 632.500 327.750 632.802 C 330.949 632.986, 333 632.693, 333 632.052 C 333 631.472, 330.982 631, 328.500 631 C 324.024 631, 324 630.981, 324 627.500 C 324 624.083, 324.095 624, 328 624 C 330.200 624, 332 623.550, 332 623 C 332 622.450, 330.200 622, 328 622 C 324.222 622, 324 621.833, 324 619 C 324 616.111, 324.167 616, 328.500 616 C 330.975 616, 333 615.550, 333 615 C 333 614.450, 330.508 614, 327.462 614 L 321.925 614 322.212 623.250 M 342.745 614.642 C 341.744 616.340, 341.933 631.841, 342.963 632.477 C 343.621 632.884, 344 631.453, 344 628.559 C 344 622.410, 346.520 622.450, 350.290 628.658 C 351.825 631.185, 353.339 632.995, 353.654 632.679 C 353.970 632.363, 353.223 630.478, 351.993 628.489 L 349.759 624.873 351.879 622.898 C 354.277 620.664, 354.630 617.768, 352.700 616.166 C 350.960 614.722, 343.382 613.562, 342.745 614.642 M 363 623.500 C 363 629.167, 363.404 633, 364 633 C 364.596 633, 365 629.167, 365 623.500 C 365 617.833, 364.596 614, 364 614 C 363.404 614, 363 617.833, 363 623.500 M 378.750 615.080 C 375.840 616.775, 373.753 621.868, 374.449 625.578 C 375.609 631.762, 383.596 635.134, 388.427 631.479 C 391.207 629.375, 389.651 628.527, 386.636 630.503 C 383.707 632.422, 380.862 631.842, 377.966 628.733 C 372.820 623.209, 378.630 613.388, 385.500 616 C 389.287 617.440, 390.815 617.174, 388.559 615.468 C 386.331 613.783, 381.317 613.585, 378.750 615.080 M 399.212 623.250 L 399.500 632.500 404.750 632.802 C 407.949 632.986, 410 632.693, 410 632.052 C 410 631.456, 407.832 631, 405 631 L 400 631 400 627.500 C 400 624.019, 400.024 624, 404.500 624 C 406.975 624, 409 623.550, 409 623 C 409 622.450, 406.975 622, 404.500 622 C 400.167 622, 400 621.889, 400 619 C 400 616.067, 400.111 616, 405 616 C 407.750 616, 410 615.550, 410 615 C 410 614.450, 407.508 614, 404.462 614 L 398.925 614 399.212 623.250 M 419 622.941 C 419 627.859, 419.450 632.160, 420 632.500 C 420.640 632.896, 421 629.677, 421 623.559 C 421 617.853, 420.597 614, 420 614 C 419.408 614, 419 617.647, 419 622.941 M 431.722 614.642 C 430.751 616.215, 431.003 631.884, 432.009 632.506 C 432.608 632.876, 433 631.316, 433 628.559 C 433 622.352, 435.628 622.326, 439 628.500 C 440.352 630.975, 441.805 633, 442.229 633 C 443.370 633, 443.210 632.471, 440.872 628.508 L 438.744 624.901 440.872 622.636 C 443.296 620.056, 443.593 617.737, 441.700 616.166 C 439.958 614.720, 432.387 613.564, 431.722 614.642 M 457.133 616.087 C 456.616 617.414, 455.206 620.750, 454 623.500 C 449.959 632.716, 449.738 633.463, 451.468 632.026 C 452.311 631.327, 453 630.135, 453 629.378 C 453 628.379, 454.471 628, 458.339 628 C 463.134 628, 463.801 628.268, 464.877 630.629 C 465.536 632.075, 466.282 633.052, 466.535 632.799 C 467.050 632.284, 460.250 616.013, 458.923 614.587 C 458.432 614.059, 457.678 614.690, 457.133 616.087 M 344 619.440 C 344 622.492, 344.329 623, 346.309 623 C 349.535 623, 352.287 620.733, 351.850 618.434 C 351.579 617.005, 350.506 616.419, 347.742 616.190 C 344.062 615.884, 344 615.938, 344 619.440 M 433 619.440 C 433 623.301, 433.936 623.735, 438.504 621.998 C 440.451 621.258, 441.055 620.410, 440.819 618.748 C 440.563 616.943, 439.761 616.439, 436.750 616.190 C 433.061 615.884, 433 615.937, 433 619.440 M 456.568 620.491 C 454.382 625.724, 454.501 626, 458.949 626 L 462.898 626 461.356 622.250 C 459.049 616.637, 458.294 616.360, 456.568 620.491" stroke="none" fill="#0e1316" fill-rule="evenodd"/></svg>