<svg xmlns="http://www.w3.org/2000/svg" width="783" height="770" viewBox="0 0 783 770" version="1.1"><path d="M 0 386.004 L 0 770.003 391.750 769.751 L 783.500 769.500 783.751 385.500 L 784.003 1.500 392.001 1.753 L 0 2.005 0 386.004 M 0.495 386 C 0.495 597.475, 0.610 683.987, 0.750 578.250 C 0.890 472.512, 0.890 299.487, 0.750 193.750 C 0.610 88.012, 0.495 174.525, 0.495 386 M 185.288 273.811 C 178.182 274.498, 171.205 288.189, 166.084 311.500 C 164.997 316.450, 163.796 323.538, 163.415 327.250 L 162.724 334 173.301 334 L 183.877 334 184.531 329.250 C 187.132 310.335, 192.991 289.256, 198.153 280.233 C 199.837 277.290, 200.929 274.596, 200.581 274.248 C 199.901 273.568, 190.562 273.301, 185.288 273.811 M 532.980 274.013 C 532.329 274.414, 532.860 276.292, 534.411 279.076 C 536.991 283.706, 541.064 294.505, 542.963 301.750 L 544.077 306 557.039 306 C 564.167 306, 569.994 305.663, 569.987 305.250 C 569.944 302.750, 565.470 290.441, 562.444 284.500 C 557.414 274.624, 555.883 273.720, 543.860 273.530 C 538.444 273.444, 533.548 273.661, 532.980 274.013 M 565.066 273.959 C 564.205 274.492, 564.449 275.647, 565.968 278.221 C 570.332 285.618, 574.653 299.179, 578.564 317.750 C 579.022 319.925, 579.420 320, 590.519 320 C 603.741 320, 603.046 320.747, 600.458 309.312 C 597.019 294.117, 591.414 280.562, 586.785 276.250 C 584.733 274.337, 583.010 273.942, 575.309 273.614 C 570.325 273.402, 565.716 273.558, 565.066 273.959 M 593.167 273.750 C 593.350 274.163, 595.205 277.959, 597.289 282.187 C 602.126 291.997, 605.303 302.980, 608.144 319.703 L 610.403 333 621.281 333 L 632.159 333 631.644 330.250 C 631.360 328.738, 630.835 325.250, 630.476 322.500 C 628.731 309.136, 623.679 291.930, 618.829 282.831 C 614.396 274.514, 611.691 273.008, 601.167 273.004 C 596.583 273.002, 592.983 273.337, 593.167 273.750 M 207.245 277.250 C 202.864 281.774, 198.279 292.426, 194.883 305.968 C 193.297 312.290, 192 318.034, 192 318.731 C 192 319.686, 194.972 320, 204 320 C 215.108 320, 216 319.859, 216 318.107 C 216 315.238, 221.498 294.262, 223.937 287.825 C 225.120 284.704, 227.193 280.521, 228.544 278.531 C 229.895 276.540, 231 274.706, 231 274.456 C 231 274.205, 226.363 274, 220.696 274 L 210.392 274 207.245 277.250 M 237.808 275.936 C 236.454 277.001, 233.974 280.489, 232.296 283.686 C 229.723 288.592, 228.338 292.309, 224.453 304.750 C 224.154 305.707, 227.162 305.998, 237.281 305.992 L 250.500 305.985 252.744 297.742 C 253.978 293.209, 256.742 286.012, 258.887 281.750 L 262.785 274 251.527 274 C 241.907 274, 239.912 274.282, 237.808 275.936 M 268.534 277.143 C 259.911 287.390, 253.602 310.721, 250.518 343.765 C 249.683 352.710, 249 363.623, 249 368.015 L 249 376 260.500 376 L 272 376 272 360.461 C 272 344.689, 273.392 327.730, 275.043 323.388 C 275.726 321.591, 276.706 321, 279 321 C 283.182 321, 283.933 323.369, 285.341 341 L 286.500 355.500 292.750 355.798 L 299 356.095 298.996 351.298 C 298.989 343.727, 294.274 313.452, 291.474 303 C 285.053 279.038, 275.756 268.559, 268.534 277.143 M 514.869 276.750 C 509.537 282.604, 506.360 289.741, 502.537 304.453 C 499.660 315.528, 496.237 337.683, 495.810 348 L 495.500 355.500 501.696 355.796 L 507.892 356.093 508.395 352.796 C 508.671 350.983, 509.119 344.550, 509.389 338.500 C 509.934 326.278, 511.191 321.445, 514.016 320.706 C 516.820 319.973, 518.989 322.056, 520.076 326.527 C 520.607 328.712, 521.327 340.738, 521.675 353.250 L 522.307 376 533.595 376 C 539.803 376, 545.114 375.625, 545.397 375.167 C 546.017 374.164, 544.362 346.101, 542.941 333.500 C 539.918 306.715, 532.121 282.099, 524.695 275.899 C 521.488 273.222, 517.792 273.542, 514.869 276.750 M 222.619 313.750 C 220.502 320.936, 217.009 354.527, 217.003 367.750 L 217 376 229.893 376 C 240.727 376, 242.883 375.747, 243.393 374.418 C 243.727 373.548, 244 367.279, 244 360.487 C 244 349.949, 246.872 321.437, 248.658 314.250 C 249.216 312.003, 249.199 312, 236.176 312 C 224.619 312, 223.076 312.199, 222.619 313.750 M 546.016 313.720 C 546.024 314.699, 546.936 321.800, 548.041 329.500 C 549.146 337.200, 550.334 350.813, 550.682 359.750 L 551.313 376 564.097 376 C 571.129 376, 577.130 375.599, 577.433 375.109 C 578.734 373.003, 574.959 328.546, 572.584 318 L 571.345 312.500 558.672 312.220 C 547.079 311.964, 546.001 312.092, 546.016 313.720 M 580.420 331.250 C 582.172 346.777, 582.931 357.221, 582.964 366.250 L 583 376 595.157 376 L 607.313 376 606.683 360.750 C 606.114 346.997, 604.797 333.318, 603.458 327.250 C 602.978 325.074, 602.579 325, 591.338 325 L 579.715 325 580.420 331.250 M 190.097 332.364 C 188.750 340.099, 186.735 373.762, 187.541 375.066 C 187.858 375.580, 193.208 376, 199.428 376 L 210.738 376 211.358 372.250 C 211.699 370.188, 212.013 363.550, 212.055 357.500 C 212.098 351.450, 212.712 342.225, 213.419 337 C 214.127 331.775, 214.520 327.163, 214.294 326.750 C 214.067 326.337, 208.780 326, 202.544 326 L 191.205 326 190.097 332.364 M 162.088 340.835 C 161.548 341.844, 160.790 350.169, 160.403 359.335 L 159.699 376 170.381 376 C 178.056 376, 181.170 375.648, 181.445 374.750 C 182.442 371.486, 183.417 340.808, 182.550 339.946 C 182.028 339.426, 177.431 339, 172.335 339 C 164.372 339, 162.932 339.258, 162.088 340.835 M 611.357 346.750 C 611.684 351.012, 612.249 359.337, 612.612 365.250 L 613.273 376 623.781 376 L 634.290 376 633.768 358.603 C 633.480 349.034, 632.938 340.709, 632.564 340.103 C 632.136 339.412, 627.940 339, 621.322 339 L 610.762 339 611.357 346.750 M 280.250 361.660 C 279.419 361.997, 279 364.488, 279 369.087 L 279 376.008 396.750 375.754 L 514.500 375.500 514.500 368.500 L 514.500 361.500 398 361.327 C 333.925 361.232, 280.938 361.382, 280.250 361.660 M 640.415 362.362 C 640.127 363.111, 640.029 366.374, 640.196 369.612 L 640.500 375.500 646.382 375.804 L 652.265 376.108 651.785 371.111 C 651.110 364.092, 648.866 361, 644.446 361 C 642.408 361, 640.718 361.571, 640.415 362.362 M 145.174 363.291 C 143.780 364.971, 141.792 373.855, 142.540 375.065 C 142.858 375.579, 145.566 376, 148.559 376 L 154 376 154 369 L 154 362 150.122 362 C 147.990 362, 145.763 362.581, 145.174 363.291 M 299.200 390.672 C 294.086 393.192, 289.183 399.666, 286.976 406.814 C 283.080 419.428, 285.106 437.206, 291.377 445.428 C 297.663 453.669, 310.942 455.519, 317.708 449.096 C 320.547 446.402, 321 446.457, 321 449.500 C 321 451.864, 321.300 452, 326.500 452 L 332 452 332 435 L 332 418 321 418 L 310 418 310 423.943 L 310 429.885 314.241 430.193 C 319.419 430.568, 320.284 432.807, 316.655 436.436 C 311.835 441.256, 305.951 440.569, 301.590 434.677 C 299.809 432.270, 299.500 430.425, 299.500 422.177 C 299.500 411.542, 300.635 408.060, 305.201 404.681 C 309.102 401.795, 313.819 403.296, 316.500 408.278 C 318.479 411.956, 318.564 411.995, 324.750 411.997 L 331 412 331 401 L 331 390 326 390 C 321.717 390, 321 390.278, 321 391.941 C 321 393.009, 320.550 394.160, 320 394.500 C 319.450 394.840, 319 394.678, 319 394.141 C 319 393.603, 317.484 392.226, 315.632 391.082 C 311.511 388.534, 303.921 388.345, 299.200 390.672 M 418.500 390.333 C 413.958 392.398, 408.507 399.050, 405.973 405.619 C 402.736 414.009, 402.743 428.976, 405.988 437.500 C 409.101 445.677, 415.215 451.610, 421.500 452.552 C 427.967 453.522, 432.869 452.500, 435.961 449.538 C 439.276 446.361, 440 446.354, 440 449.500 C 440 451.864, 440.300 452, 445.500 452 L 451 452 451 435 L 451 418 440 418 L 429 418 429 424 L 429 430 432.941 430 C 437.756 430, 438.539 431.058, 436.558 434.887 C 434.539 438.792, 429.165 440.680, 425.368 438.818 C 419.787 436.082, 418.500 432.861, 418.500 421.633 C 418.500 413.552, 418.869 410.848, 420.264 408.720 C 424.922 401.611, 431.972 401.421, 435.354 408.312 L 437.208 412.090 443.354 411.795 L 449.500 411.500 449.500 401 L 449.500 390.500 444.500 390.500 C 440.009 390.500, 439.466 390.740, 439.166 392.857 L 438.833 395.214 435.917 392.421 C 433.547 390.150, 431.926 389.566, 427.251 389.298 C 423.829 389.102, 420.285 389.521, 418.500 390.333 M 625.192 391.024 C 620.671 393.781, 618.049 399.907, 618.022 407.782 C 617.980 419.869, 622.961 425.515, 636.237 428.431 C 639.630 429.176, 642.405 433.149, 641.507 435.978 C 639.589 442.022, 632.279 441.749, 629.309 435.523 C 627.699 432.145, 627.411 432, 622.315 432 L 617 432 617 442 L 617 452 622 452 C 626.467 452, 627 451.768, 627 449.826 C 627 447.658, 627.008 447.659, 629.581 450.076 C 633.046 453.332, 643.034 453.572, 647.235 450.500 C 651.692 447.242, 654.421 440.533, 654.352 433.006 C 654.248 421.579, 649.547 415.626, 638.500 412.931 C 632.031 411.353, 631 410.457, 631 406.413 C 631 400.020, 638.385 399.687, 640.985 405.963 C 642.227 408.961, 642.500 409.082, 647.391 408.797 L 652.500 408.500 652.500 399.500 L 652.500 390.500 647.750 390.195 C 643.894 389.948, 643 390.199, 643 391.527 C 643 392.954, 642.569 392.897, 639.632 391.082 C 635.357 388.440, 629.470 388.416, 625.192 391.024 M 139 396.500 C 139 402.333, 139.205 403, 141 403 C 142.925 403, 143 403.667, 143 420.883 C 143 437.926, 142.906 438.791, 141 439.290 C 139.276 439.741, 139 440.654, 139 445.906 L 139 452 153.750 451.978 C 175.530 451.946, 179.806 449.440, 180.757 436.153 C 181.284 428.793, 179.721 424.092, 175.969 421.748 C 173.495 420.204, 173.502 419.450, 176.017 416.751 C 180.254 412.204, 180.770 403.015, 177.143 396.729 C 174.075 391.413, 169.046 390, 153.184 390 L 139 390 139 396.500 M 187 396.383 C 187 401.926, 187.263 402.836, 189 403.290 C 190.904 403.788, 191 404.654, 191 421.406 C 191 438.333, 190.924 439, 189 439 C 187.205 439, 187 439.667, 187 445.500 L 187 452 197.500 452 L 208 452 208 445.906 C 208 440.654, 207.724 439.741, 206 439.290 C 204.344 438.857, 204 437.926, 204 433.883 C 204 425.666, 206.389 427.539, 212.502 440.549 L 217.928 452.097 224.214 451.799 L 230.500 451.500 230.800 445.744 C 231.075 440.468, 230.902 439.913, 228.716 439.082 C 227.165 438.492, 225.284 435.977, 223.333 431.883 L 220.334 425.590 223.100 423.262 C 226.919 420.049, 228.343 415.042, 227.759 406.880 C 226.799 393.461, 221.071 390, 199.822 390 L 187 390 187 396.383 M 249.524 391.211 C 249.281 391.920, 246.651 402.850, 243.682 415.500 C 239.518 433.234, 237.907 438.574, 236.641 438.823 C 235.323 439.083, 235 440.413, 235 445.573 L 235 452 244 452 L 253 452 253 445.500 C 253 440.389, 252.679 439, 251.500 439 C 249.835 439, 249.466 435.934, 250.951 434.449 C 251.475 433.925, 254.737 433.723, 258.201 433.999 C 263.666 434.434, 264.540 434.781, 264.802 436.620 C 265.011 438.080, 264.450 438.910, 263 439.290 C 261.117 439.782, 260.927 440.454, 261.198 445.670 L 261.500 451.500 272.250 451.784 L 283 452.068 283 445.940 C 283 440.943, 282.677 439.728, 281.248 439.355 C 279.881 438.997, 278.541 434.906, 275.137 420.698 C 272.739 410.689, 270.016 399.800, 269.086 396.500 L 267.396 390.500 258.681 390.211 C 252.256 389.998, 249.851 390.260, 249.524 391.211 M 352.668 390.729 C 352.194 391.495, 351.235 395.328, 343.929 425.665 C 341.367 436.304, 340.388 438.927, 338.827 439.335 C 337.150 439.774, 336.935 440.609, 337.198 445.670 L 337.500 451.500 346.750 451.788 L 356 452.075 356 445.944 C 356 440.654, 355.726 439.741, 354 439.290 C 351.873 438.734, 351.638 438.107, 352.607 435.582 C 353.487 433.287, 366.513 433.287, 367.393 435.582 C 368.362 438.107, 368.127 438.734, 366 439.290 C 364.275 439.741, 364 440.654, 364 445.940 L 364 452.068 374.750 451.784 L 385.500 451.500 385.802 445.670 C 386.066 440.594, 385.853 439.774, 384.157 439.331 C 381.958 438.756, 382.110 439.248, 375.212 410.500 L 370.412 390.500 361.789 390.212 C 357.045 390.054, 352.941 390.286, 352.668 390.729 M 467.113 407.250 C 464.819 416.738, 462.171 427.738, 461.229 431.697 C 460.017 436.793, 459.004 439.027, 457.758 439.353 C 456.322 439.729, 456 440.935, 456 445.944 L 456 452.075 465.250 451.788 L 474.500 451.500 474.802 445.670 C 475.070 440.498, 474.873 439.780, 473.052 439.303 C 470.943 438.752, 470.234 435.591, 471.978 434.514 C 473.110 433.814, 484.779 433.426, 485.361 434.069 C 485.576 434.306, 486.063 435.512, 486.443 436.750 C 487.006 438.581, 486.750 439, 485.067 439 C 483.190 439, 483 439.596, 483 445.500 L 483 452 493.500 452 L 504 452 504 445.617 C 504 440.074, 503.737 439.164, 502 438.710 C 500.900 438.423, 500 437.434, 500 436.514 C 500 435.115, 491.025 397.264, 489.386 391.750 C 488.941 390.256, 487.582 390, 480.074 390 L 471.283 390 467.113 407.250 M 508.698 390.635 C 508.314 391.019, 508 393.775, 508 396.760 C 508 401.346, 508.310 402.268, 510 402.710 C 511.905 403.209, 512 404.074, 512 421 C 512 437.926, 511.905 438.791, 510 439.290 C 508.274 439.741, 508 440.654, 508 445.943 L 508 452.072 517.750 451.786 L 527.500 451.500 527.800 445.744 C 528.080 440.371, 527.931 439.924, 525.550 439.019 L 523 438.050 523.065 425.275 L 523.130 412.500 524.943 417.500 C 526.654 422.219, 527.642 425.476, 533.056 444.250 C 535.014 451.037, 535.578 452, 537.603 452 C 540.123 452, 539.400 453.893, 547.526 426 C 549.528 419.125, 551.354 413.313, 551.583 413.083 C 551.813 412.854, 552 418.560, 552 425.764 C 552 438.585, 551.953 438.868, 549.750 439.180 C 547.702 439.471, 547.500 440.039, 547.500 445.500 L 547.500 451.500 557.750 451.785 L 568 452.070 568 445.535 C 568 439.667, 567.796 439, 566 439 C 564.076 439, 564 438.333, 564 421.406 C 564 404.654, 564.096 403.788, 566 403.290 C 567.737 402.836, 568 401.926, 568 396.383 L 568 390 557.632 390 L 547.263 390 544.031 401.750 C 542.253 408.212, 540.566 414.743, 540.284 416.262 C 539.352 421.267, 538.244 420.094, 536.013 411.743 C 534.802 407.209, 533.021 400.575, 532.055 397 L 530.299 390.500 519.848 390.218 C 514.100 390.063, 509.083 390.251, 508.698 390.635 M 574 396.383 C 574 401.926, 574.263 402.836, 576 403.290 C 577.902 403.787, 578 404.654, 578 421 C 578 437.346, 577.902 438.213, 576 438.710 C 574.263 439.164, 574 440.074, 574 445.617 L 574 452 593 452 L 612 452 612 442.500 L 612 433 607.066 433 C 602.428 433, 602.114 433.164, 601.816 435.750 C 601.521 438.315, 601.147 438.520, 596.250 438.802 L 591 439.105 591 433.098 L 591 427.091 597.750 426.796 L 604.500 426.500 604.500 420.500 L 604.500 414.500 597.750 414.204 L 591 413.909 591 408.400 L 591 402.890 595.750 403.195 C 600.100 403.474, 600.527 403.732, 600.816 406.250 C 601.114 408.836, 601.428 409, 606.066 409 L 611 409 611 399.500 L 611 390 592.500 390 L 574 390 574 396.383 M 156 408.500 L 156 414 159.845 414 C 162.300 414, 164.288 413.339, 165.345 412.171 C 169.094 408.029, 165.983 403, 159.671 403 L 156 403 156 408.500 M 204.206 410.250 L 204.500 417.500 208 417.159 C 212.862 416.686, 215 414.470, 215 409.902 C 215 405.391, 212.310 403, 207.234 403 L 203.912 403 204.206 410.250 M 357.673 413.236 C 356.739 417.231, 355.980 420.837, 355.987 421.250 C 355.994 421.663, 357.800 422, 360 422 C 362.255 422, 364 421.518, 364 420.894 C 364 418.922, 360.867 407.523, 360.109 406.736 C 359.704 406.316, 358.608 409.241, 357.673 413.236 M 476.631 412.419 C 474.279 421.781, 474.333 422, 479 422 C 481.200 422, 482.988 421.663, 482.974 421.250 C 482.918 419.673, 479.367 407.034, 478.828 406.495 C 478.516 406.183, 477.527 408.849, 476.631 412.419 M 255.167 412.250 C 254.556 415.137, 253.767 418.512, 253.412 419.750 C 252.812 421.843, 253.078 422, 257.211 422 L 261.655 422 260.229 415.750 C 259.445 412.313, 258.637 408.938, 258.433 408.250 C 257.629 405.534, 256.222 407.256, 255.167 412.250 M 156 432 L 156 439 160.443 439 C 163.901 439, 165.232 438.507, 166.443 436.777 C 170.323 431.239, 166.910 425, 160 425 L 156 425 156 432 M 356.750 465.080 C 354.598 466.334, 352 471.185, 352 473.950 C 352 477.194, 357.736 476.825, 359 473.500 C 360.069 470.688, 362.473 470.185, 363.393 472.582 C 364.407 475.224, 364.205 475.626, 358 483.340 C 354.116 488.167, 352 491.716, 352 493.399 L 352 496 361.555 496 L 371.110 496 370.805 491.250 C 370.545 487.197, 370.170 486.453, 368.250 486.180 C 366.737 485.966, 366 486.375, 366 487.430 C 366 488.342, 365.147 489, 363.965 489 C 362.331 489, 362.116 488.652, 362.872 487.239 C 363.391 486.270, 364.803 484.584, 366.010 483.491 C 374.201 476.078, 371.887 463.954, 362.295 464.030 C 360.208 464.047, 357.712 464.519, 356.750 465.080 M 378.155 466.523 C 371.371 472.231, 372.024 489.402, 379.217 494.439 C 384.018 497.802, 391.698 495.264, 394.484 489.393 C 396.464 485.221, 396.477 473.822, 394.506 470.011 C 391.185 463.590, 383.571 461.966, 378.155 466.523 M 403.656 465.133 C 401.755 466.238, 399 471.761, 399 474.468 C 399 475.506, 399.975 476, 402.025 476 C 404.331 476, 405.275 475.406, 406 473.500 C 407.063 470.705, 409.743 470.167, 410.663 472.564 C 411.521 474.800, 409.980 477.652, 404.135 484.648 C 400.843 488.587, 399 491.728, 399 493.396 L 399 496 409.055 496 L 419.110 496 418.805 491.250 C 418.553 487.324, 418.140 486.449, 416.424 486.203 C 415.118 486.017, 414.005 486.657, 413.424 487.928 C 412.751 489.399, 412.096 489.697, 411.018 489.022 C 409.772 488.243, 409.953 487.648, 412.153 485.297 C 421.013 475.832, 419.416 463.949, 409.295 464.030 C 407.208 464.047, 404.670 464.543, 403.656 465.133 M 425.601 472.909 C 423.071 477.809, 421 482.984, 421 484.409 C 421 486.883, 421.248 487, 426.500 487 C 429.525 487, 432 487.450, 432 488 C 432 488.550, 431.550 489, 431 489 C 430.450 489, 430 490.575, 430 492.500 L 430 496 435.500 496 L 441 496 441 492.583 C 441 490.704, 440.438 488.930, 439.750 488.641 C 438.855 488.265, 438.997 487.802, 440.250 487.008 C 442.393 485.652, 442.548 482.148, 440.500 481.362 C 439.332 480.913, 439 478.931, 439 472.393 L 439 464 434.601 464 L 430.202 464 425.601 472.909 M 382.200 472.200 C 380.373 474.027, 380.651 485.509, 382.569 487.427 C 384.349 489.206, 387.329 488.191, 388.382 485.446 C 389.319 483.006, 389.122 476.450, 388.025 473.565 C 386.987 470.834, 384.215 470.185, 382.200 472.200 M 429.212 476.500 L 427.026 481 429.513 481 C 431.794 481, 432 480.627, 432 476.500 C 432 474.025, 431.865 472, 431.699 472 C 431.534 472, 430.415 474.025, 429.212 476.500 M 316.521 475.327 C 315.558 476.797, 313.948 478, 312.944 478 C 310.176 478, 309.587 479.887, 311.645 482.161 C 312.678 483.301, 313.345 485.277, 313.164 486.658 C 312.861 488.965, 313.060 489.079, 316.315 488.469 C 318.295 488.097, 320.695 488.302, 321.895 488.944 C 323.871 490.002, 324 489.827, 324 486.085 C 324 483.430, 324.548 481.793, 325.640 481.181 C 327.636 480.065, 326.587 478, 324.024 478 C 323.003 478, 321.291 476.797, 320.220 475.327 L 318.273 472.654 316.521 475.327 M 470.818 475.500 C 470.088 477.103, 468.861 478, 467.399 478 C 464.328 478, 463.383 479.828, 465.612 481.458 C 466.891 482.393, 467.351 483.860, 467.177 486.445 C 466.944 489.903, 467.050 490.044, 469.070 488.962 C 470.282 488.314, 472.684 488.093, 474.605 488.454 C 477.788 489.051, 478 488.921, 478 486.374 C 478 484.880, 478.719 482.863, 479.598 481.892 C 481.476 479.816, 480.693 478, 477.920 478 C 476.797 478, 475.470 476.930, 474.818 475.500 C 474.192 474.125, 473.292 473, 472.818 473 C 472.345 473, 471.445 474.125, 470.818 475.500 M 279 477.025 C 279 477.588, 277.802 478.505, 276.337 479.062 C 274.313 479.831, 273.953 480.353, 274.837 481.237 C 275.477 481.877, 276 483.435, 276 484.700 C 276 487.060, 277.397 487.784, 278.502 485.996 C 278.843 485.444, 280.220 485.268, 281.561 485.605 C 283.664 486.132, 284 485.869, 284 483.692 C 284 482.303, 284.563 480.958, 285.250 480.703 C 285.953 480.442, 285.296 479.759, 283.750 479.144 C 282.238 478.542, 281 477.588, 281 477.025 C 281 476.461, 280.550 476, 280 476 C 279.450 476, 279 476.461, 279 477.025 M 510.091 477.390 C 509.356 478.276, 508.087 479, 507.271 479 C 506.328 479, 506.007 479.577, 506.393 480.582 C 506.727 481.452, 507 483.076, 507 484.190 C 507 485.839, 507.455 486.103, 509.439 485.605 C 510.780 485.268, 512.157 485.444, 512.498 485.996 C 513.603 487.784, 515 487.060, 515 484.700 C 515 483.435, 515.523 481.877, 516.163 481.237 C 517.047 480.353, 516.712 479.841, 514.768 479.102 C 513.361 478.567, 512.034 477.601, 511.818 476.955 C 511.553 476.159, 510.996 476.300, 510.091 477.390" stroke="none" fill="#ffffff" fill-rule="evenodd"/><path d="M 185.288 273.811 C 178.182 274.498, 171.205 288.189, 166.084 311.500 C 164.997 316.450, 163.796 323.538, 163.415 327.250 L 162.724 334 173.301 334 L 183.877 334 184.531 329.250 C 187.132 310.335, 192.991 289.256, 198.153 280.233 C 199.837 277.290, 200.929 274.596, 200.581 274.248 C 199.901 273.568, 190.562 273.301, 185.288 273.811 M 532.980 274.013 C 532.329 274.414, 532.860 276.292, 534.411 279.076 C 536.991 283.706, 541.064 294.505, 542.963 301.750 L 544.077 306 557.039 306 C 564.167 306, 569.994 305.663, 569.987 305.250 C 569.944 302.750, 565.470 290.441, 562.444 284.500 C 557.414 274.624, 555.883 273.720, 543.860 273.530 C 538.444 273.444, 533.548 273.661, 532.980 274.013 M 565.066 273.959 C 564.205 274.492, 564.449 275.647, 565.968 278.221 C 570.332 285.618, 574.653 299.179, 578.564 317.750 C 579.022 319.925, 579.420 320, 590.519 320 C 603.741 320, 603.046 320.747, 600.458 309.312 C 597.019 294.117, 591.414 280.562, 586.785 276.250 C 584.733 274.337, 583.010 273.942, 575.309 273.614 C 570.325 273.402, 565.716 273.558, 565.066 273.959 M 593.167 273.750 C 593.350 274.163, 595.205 277.959, 597.289 282.187 C 602.126 291.997, 605.303 302.980, 608.144 319.703 L 610.403 333 621.281 333 L 632.159 333 631.644 330.250 C 631.360 328.738, 630.835 325.250, 630.476 322.500 C 628.731 309.136, 623.679 291.930, 618.829 282.831 C 614.396 274.514, 611.691 273.008, 601.167 273.004 C 596.583 273.002, 592.983 273.337, 593.167 273.750 M 207.245 277.250 C 202.864 281.774, 198.279 292.426, 194.883 305.968 C 193.297 312.290, 192 318.034, 192 318.731 C 192 319.686, 194.972 320, 204 320 C 215.108 320, 216 319.859, 216 318.107 C 216 315.238, 221.498 294.262, 223.937 287.825 C 225.120 284.704, 227.193 280.521, 228.544 278.531 C 229.895 276.540, 231 274.706, 231 274.456 C 231 274.205, 226.363 274, 220.696 274 L 210.392 274 207.245 277.250 M 237.808 275.936 C 236.454 277.001, 233.974 280.489, 232.296 283.686 C 229.723 288.592, 228.338 292.309, 224.453 304.750 C 224.154 305.707, 227.162 305.998, 237.281 305.992 L 250.500 305.985 252.744 297.742 C 253.978 293.209, 256.742 286.012, 258.887 281.750 L 262.785 274 251.527 274 C 241.907 274, 239.912 274.282, 237.808 275.936 M 268.534 277.143 C 259.911 287.390, 253.602 310.721, 250.518 343.765 C 249.683 352.710, 249 363.623, 249 368.015 L 249 376 260.500 376 L 272 376 272 360.461 C 272 344.689, 273.392 327.730, 275.043 323.388 C 275.726 321.591, 276.706 321, 279 321 C 283.182 321, 283.933 323.369, 285.341 341 L 286.500 355.500 292.750 355.798 L 299 356.095 298.996 351.298 C 298.989 343.727, 294.274 313.452, 291.474 303 C 285.053 279.038, 275.756 268.559, 268.534 277.143 M 514.869 276.750 C 509.537 282.604, 506.360 289.741, 502.537 304.453 C 499.660 315.528, 496.237 337.683, 495.810 348 L 495.500 355.500 501.696 355.796 L 507.892 356.093 508.395 352.796 C 508.671 350.983, 509.119 344.550, 509.389 338.500 C 509.934 326.278, 511.191 321.445, 514.016 320.706 C 516.820 319.973, 518.989 322.056, 520.076 326.527 C 520.607 328.712, 521.327 340.738, 521.675 353.250 L 522.307 376 533.595 376 C 539.803 376, 545.114 375.625, 545.397 375.167 C 546.017 374.164, 544.362 346.101, 542.941 333.500 C 539.918 306.715, 532.121 282.099, 524.695 275.899 C 521.488 273.222, 517.792 273.542, 514.869 276.750 M 222.619 313.750 C 220.502 320.936, 217.009 354.527, 217.003 367.750 L 217 376 229.893 376 C 240.727 376, 242.883 375.747, 243.393 374.418 C 243.727 373.548, 244 367.279, 244 360.487 C 244 349.949, 246.872 321.437, 248.658 314.250 C 249.216 312.003, 249.199 312, 236.176 312 C 224.619 312, 223.076 312.199, 222.619 313.750 M 546.016 313.720 C 546.024 314.699, 546.936 321.800, 548.041 329.500 C 549.146 337.200, 550.334 350.813, 550.682 359.750 L 551.313 376 564.097 376 C 571.129 376, 577.130 375.599, 577.433 375.109 C 578.734 373.003, 574.959 328.546, 572.584 318 L 571.345 312.500 558.672 312.220 C 547.079 311.964, 546.001 312.092, 546.016 313.720 M 580.420 331.250 C 582.172 346.777, 582.931 357.221, 582.964 366.250 L 583 376 595.157 376 L 607.313 376 606.683 360.750 C 606.114 346.997, 604.797 333.318, 603.458 327.250 C 602.978 325.074, 602.579 325, 591.338 325 L 579.715 325 580.420 331.250 M 190.097 332.364 C 188.750 340.099, 186.735 373.762, 187.541 375.066 C 187.858 375.580, 193.208 376, 199.428 376 L 210.738 376 211.358 372.250 C 211.699 370.188, 212.013 363.550, 212.055 357.500 C 212.098 351.450, 212.712 342.225, 213.419 337 C 214.127 331.775, 214.520 327.163, 214.294 326.750 C 214.067 326.337, 208.780 326, 202.544 326 L 191.205 326 190.097 332.364 M 162.088 340.835 C 161.548 341.844, 160.790 350.169, 160.403 359.335 L 159.699 376 170.381 376 C 178.056 376, 181.170 375.648, 181.445 374.750 C 182.442 371.486, 183.417 340.808, 182.550 339.946 C 182.028 339.426, 177.431 339, 172.335 339 C 164.372 339, 162.932 339.258, 162.088 340.835 M 611.357 346.750 C 611.684 351.012, 612.249 359.337, 612.612 365.250 L 613.273 376 623.781 376 L 634.290 376 633.768 358.603 C 633.480 349.034, 632.938 340.709, 632.564 340.103 C 632.136 339.412, 627.940 339, 621.322 339 L 610.762 339 611.357 346.750 M 280.250 361.660 C 279.419 361.997, 279 364.488, 279 369.087 L 279 376.008 396.750 375.754 L 514.500 375.500 514.500 368.500 L 514.500 361.500 398 361.327 C 333.925 361.232, 280.938 361.382, 280.250 361.660 M 640.415 362.362 C 640.127 363.111, 640.029 366.374, 640.196 369.612 L 640.500 375.500 646.382 375.804 L 652.265 376.108 651.785 371.111 C 651.110 364.092, 648.866 361, 644.446 361 C 642.408 361, 640.718 361.571, 640.415 362.362 M 145.174 363.291 C 143.780 364.971, 141.792 373.855, 142.540 375.065 C 142.858 375.579, 145.566 376, 148.559 376 L 154 376 154 369 L 154 362 150.122 362 C 147.990 362, 145.763 362.581, 145.174 363.291 M 146.296 390.744 C 150.583 390.932, 157.333 390.931, 161.296 390.742 C 165.258 390.552, 161.750 390.399, 153.500 390.400 C 145.250 390.401, 142.008 390.556, 146.296 390.744 M 193.206 390.741 C 196.895 390.932, 203.195 390.934, 207.206 390.743 C 211.218 390.553, 208.200 390.396, 200.500 390.395 C 192.800 390.393, 189.518 390.549, 193.206 390.741 M 249.667 390.667 C 249.300 391.033, 249.007 391.821, 249.015 392.417 C 249.025 393.092, 249.320 393.045, 249.797 392.294 C 250.266 391.557, 253.857 390.956, 259.032 390.748 L 267.500 390.407 258.917 390.204 C 254.196 390.092, 250.033 390.300, 249.667 390.667 M 323.250 390.716 C 324.762 390.945, 327.238 390.945, 328.750 390.716 C 330.262 390.487, 329.025 390.300, 326 390.300 C 322.975 390.300, 321.738 390.487, 323.250 390.716 M 355.500 390.632 C 362.663 391.375, 370.777 391.440, 370.348 390.750 C 370.092 390.337, 365.971 390.072, 361.191 390.160 C 356.411 390.248, 353.850 390.460, 355.500 390.632 M 439.405 391.386 C 439.089 392.210, 439.042 393.697, 439.299 394.692 C 439.606 395.875, 439.808 395.549, 439.884 393.750 C 439.992 391.178, 440.289 391, 444.465 391 L 448.930 391 449.270 401.002 L 449.610 411.004 449.555 400.752 L 449.500 390.500 444.740 390.195 C 441.230 389.970, 439.829 390.283, 439.405 391.386 M 475.250 390.735 C 477.863 390.941, 482.137 390.941, 484.750 390.735 C 487.363 390.529, 485.225 390.360, 480 390.360 C 474.775 390.360, 472.637 390.529, 475.250 390.735 M 512 390.647 C 520.280 391.382, 530.779 391.441, 530.349 390.750 C 530.092 390.337, 525.071 390.076, 519.191 390.168 C 513.311 390.261, 510.075 390.476, 512 390.647 M 552.287 390.740 C 555.469 390.939, 560.419 390.937, 563.287 390.736 C 566.154 390.535, 563.550 390.372, 557.500 390.374 C 551.450 390.376, 549.104 390.541, 552.287 390.740 M 583.302 390.746 C 588.693 390.926, 597.243 390.925, 602.302 390.744 C 607.361 390.563, 602.950 390.416, 592.500 390.417 C 582.050 390.418, 577.911 390.566, 583.302 390.746 M 647.212 390.701 L 651.924 391.106 652.270 399.303 L 652.617 407.500 652.558 399 L 652.500 390.500 647.500 390.398 L 642.500 390.296 647.212 390.701 M 592 402.558 C 595.716 403.367, 600.814 403.509, 600.371 402.791 C 600.102 402.356, 597.771 402.052, 595.191 402.116 C 592.611 402.180, 591.175 402.379, 592 402.558 M 593.728 414.722 C 595.503 414.943, 598.653 414.946, 600.728 414.730 C 602.802 414.513, 601.350 414.333, 597.500 414.328 C 593.650 414.324, 591.952 414.501, 593.728 414.722 M 403.286 421.500 C 403.294 424.250, 403.488 425.256, 403.718 423.736 C 403.947 422.216, 403.941 419.966, 403.704 418.736 C 403.467 417.506, 403.279 418.750, 403.286 421.500 M 417.300 422 C 417.300 425.025, 417.487 426.262, 417.716 424.750 C 417.945 423.238, 417.945 420.762, 417.716 419.250 C 417.487 417.738, 417.300 418.975, 417.300 422 M 474.252 421 C 474.527 422.022, 476.065 422.537, 479.078 422.617 C 483.467 422.732, 483.470 422.730, 479.513 422.292 C 477.320 422.049, 475.148 421.322, 474.687 420.676 C 474.110 419.868, 473.974 419.969, 474.252 421 M 355.655 422.250 C 355.909 422.663, 357.865 423, 360 423 C 362.135 423, 364.091 422.663, 364.345 422.250 C 364.600 421.837, 362.645 421.500, 360 421.500 C 357.355 421.500, 355.400 421.837, 355.655 422.250 M 593.728 426.722 C 595.503 426.943, 598.653 426.946, 600.728 426.730 C 602.802 426.513, 601.350 426.333, 597.500 426.328 C 593.650 426.324, 591.952 426.501, 593.728 426.722 M 254 433.567 C 257.359 434.318, 264.778 434.449, 264.346 433.750 C 264.091 433.337, 261.321 433.052, 258.191 433.116 C 255.061 433.180, 253.175 433.383, 254 433.567 M 352.667 433.667 C 352.300 434.033, 352.007 434.821, 352.015 435.417 C 352.025 436.097, 352.314 436.054, 352.793 435.301 C 353.226 434.620, 356.568 433.948, 360.528 433.747 L 367.500 433.392 360.417 433.196 C 356.521 433.088, 353.033 433.300, 352.667 433.667 M 265 437.717 C 265 438.294, 264.100 439.002, 263 439.290 C 261.258 439.745, 261.024 440.568, 261.189 445.656 L 261.378 451.500 261.739 445.750 C 261.994 441.679, 262.506 440, 263.491 440 C 265.081 440, 266.498 438.165, 265.600 437.267 C 265.270 436.937, 265 437.139, 265 437.717 M 226.508 439.013 C 226.844 439.556, 227.806 440, 228.648 440 C 229.888 440, 230.113 441.129, 229.839 445.954 C 229.652 449.229, 229.863 451.543, 230.307 451.097 C 230.751 450.651, 230.976 447.908, 230.807 445.002 C 230.548 440.545, 230.140 439.587, 228.199 438.873 C 226.733 438.334, 226.120 438.385, 226.508 439.013 M 523.508 439.013 C 523.844 439.556, 524.806 440, 525.648 440 C 526.888 440, 527.113 441.129, 526.839 445.954 C 526.652 449.229, 526.863 451.543, 527.307 451.097 C 527.751 450.651, 527.976 447.908, 527.807 445.002 C 527.548 440.545, 527.140 439.587, 525.199 438.873 C 523.733 438.334, 523.120 438.385, 523.508 439.013 M 596 439 L 590.500 439.674 595.691 439.837 C 598.546 439.927, 601.160 439.550, 601.500 439 C 601.840 438.450, 601.979 438.073, 601.809 438.163 C 601.639 438.253, 599.025 438.629, 596 439 M 337.409 440.377 C 337.118 441.134, 337.051 443.947, 337.260 446.627 L 337.640 451.500 337.820 445.833 C 337.929 442.385, 338.489 439.969, 339.250 439.662 C 340.229 439.267, 340.222 439.141, 339.219 439.079 C 338.514 439.036, 337.699 439.620, 337.409 440.377 M 383.690 439.696 C 384.344 440.162, 385.061 443.009, 385.283 446.022 L 385.687 451.500 385.594 445.579 C 385.525 441.219, 385.104 439.551, 384 439.253 C 382.953 438.970, 382.860 439.104, 383.690 439.696 M 472.334 439.647 C 473.897 440.100, 474.119 441.048, 473.834 446.043 C 473.650 449.269, 473.863 451.543, 474.307 451.097 C 474.751 450.651, 474.976 447.863, 474.807 444.902 C 474.549 440.370, 474.184 439.487, 472.500 439.317 C 470.786 439.144, 470.763 439.191, 472.334 439.647 M 547.667 439.667 C 546.749 440.584, 546.822 450.771, 547.750 451.348 C 548.163 451.605, 548.350 449.197, 548.166 445.997 C 547.880 441.030, 548.100 440.110, 549.666 439.706 C 551.044 439.350, 551.106 439.203, 549.917 439.116 C 549.046 439.052, 548.033 439.300, 547.667 439.667 M 438.349 472 C 438.349 476.675, 438.522 478.587, 438.732 476.250 C 438.943 473.913, 438.943 470.087, 438.732 467.750 C 438.522 465.413, 438.349 467.325, 438.349 472 M 380.286 479.500 C 380.294 482.250, 380.488 483.256, 380.718 481.736 C 380.947 480.216, 380.941 477.966, 380.704 476.736 C 380.467 475.506, 380.279 476.750, 380.286 479.500 M 320.872 477.339 C 321.627 478.253, 323.052 479, 324.039 479 C 325.026 479, 326.060 479.563, 326.338 480.250 C 326.733 481.229, 326.859 481.222, 326.921 480.219 C 326.964 479.514, 326.212 478.694, 325.250 478.396 C 324.288 478.098, 322.600 477.365, 321.500 476.766 C 319.709 475.792, 319.643 475.852, 320.872 477.339 M 313.074 477.877 C 309.778 478.798, 309.512 480.274, 312.226 482.573 L 314.500 484.500 312.750 482.421 C 310.501 479.750, 310.543 479, 312.941 479 C 314.009 479, 315.160 478.550, 315.500 478 C 315.840 477.450, 315.979 477.045, 315.809 477.100 C 315.639 477.155, 314.408 477.504, 313.074 477.877 M 475.589 478.144 C 475.880 478.615, 476.991 479, 478.059 479 C 480.201 479, 480.526 479.965, 479.004 481.804 C 478.456 482.466, 478.734 482.374, 479.622 481.600 C 481.616 479.861, 480.819 478.390, 477.545 477.764 C 476.179 477.503, 475.298 477.674, 475.589 478.144 M 274.543 479.931 C 274.226 480.443, 274.425 481.144, 274.984 481.490 C 275.543 481.835, 276 483.216, 276 484.559 C 276 485.902, 276.408 487, 276.906 487 C 277.932 487, 277.178 483.100, 275.814 481.347 C 275.250 480.623, 275.396 480.002, 276.208 479.676 C 277.095 479.320, 277.126 479.133, 276.309 479.079 C 275.654 479.036, 274.859 479.419, 274.543 479.931 M 415.698 486.649 C 417.503 487.040, 417.968 487.964, 418.300 491.813 L 418.704 496.500 418.602 491.500 C 418.508 486.907, 418.296 486.487, 416 486.336 C 413.900 486.199, 413.851 486.249, 415.698 486.649" stroke="none" fill="#8c1a28" fill-rule="evenodd"/><path d="M 0 1 C 0 2.387, 782.643 2.387, 783.500 1 C 783.912 0.334, 653.177 0, 392.059 0 C 131.353 0, 0 0.335, 0 1 M 299.500 391.156 C 291.798 395.137, 287.886 401.505, 285.908 413.277 C 284.367 422.448, 285.664 434.480, 288.864 440.703 C 295.244 453.108, 309.357 456.733, 318.250 448.249 C 319.762 446.806, 321.069 446.048, 321.152 446.563 C 321.236 447.078, 321.409 447.950, 321.537 448.500 C 321.665 449.050, 321.821 450.063, 321.885 450.750 C 321.960 451.568, 323.728 452, 327 452 L 332 452 332 434.966 L 332 417.932 321.250 418.216 L 310.500 418.500 310.200 424.250 L 309.900 430 314.450 430 C 318.592 430, 319 430.216, 319 432.411 C 319 435.774, 313.743 440, 309.558 440 C 302.257 440, 298.999 434.122, 299.028 421 C 299.046 412.699, 301.371 405.942, 304.849 404.081 C 309.840 401.410, 315.894 403.961, 318.056 409.646 C 318.918 411.914, 319.426 412.077, 324.744 411.800 L 330.500 411.500 330.785 401.250 L 331.070 391 326.035 391 C 321.238 391, 321 391.127, 321 393.687 L 321 396.374 318.250 393.751 C 312.867 388.615, 306.200 387.692, 299.500 391.156 M 418.017 391.242 C 415.551 392.563, 412.079 395.669, 410.300 398.145 C 401.980 409.728, 401.873 432.623, 410.083 444.604 C 413.183 449.128, 420.540 453, 426.034 453 C 430.098 453, 435.528 450.415, 437.960 447.324 L 439.866 444.901 440.183 448.200 C 440.495 451.451, 440.574 451.500, 445.500 451.500 L 450.500 451.500 450.500 435 L 450.500 418.500 440 418.500 L 429.500 418.500 429.200 424.250 L 428.900 430 433.450 430 C 437.390 430, 438 430.279, 438 432.077 C 438 435.479, 432.700 440, 428.712 440 C 423.809 440, 420.328 436.844, 418.522 430.764 C 416.707 424.649, 416.618 420.878, 418.126 413.846 C 420.801 401.373, 431.399 399.062, 436.910 409.750 C 437.899 411.667, 438.878 412, 443.535 412 L 449 412 449 401.500 L 449 391 444.500 391 C 440.344 391, 440 391.195, 440 393.547 L 440 396.094 436.029 392.903 C 430.560 388.508, 424.214 387.923, 418.017 391.242 M 627.379 390.437 C 617.330 394.810, 614.663 412.194, 622.680 421.067 C 625.438 424.121, 627.737 425.432, 633.154 427.046 C 640.729 429.302, 642.813 431.625, 641.599 436.460 C 640.065 442.574, 632.700 441.996, 628.843 435.459 C 626.862 432.101, 626.484 431.918, 622.122 432.200 L 617.500 432.500 617.500 442 L 617.500 451.500 621.828 451.811 C 625.489 452.075, 626.238 451.807, 626.691 450.074 C 627.224 448.034, 627.240 448.035, 630.363 450.263 C 635.021 453.585, 642.516 453.370, 647.224 449.778 C 655.618 443.376, 656.394 425.065, 648.564 418.190 C 646.864 416.697, 643.454 414.883, 640.986 414.159 C 631.739 411.444, 629.230 409.202, 630.368 404.670 C 631.681 399.437, 638.539 400.274, 641.515 406.030 C 642.871 408.652, 643.576 409, 647.526 409 L 652 409 652 400 L 652 391 647.500 391 C 644.208 391, 643 391.394, 643 392.470 C 643 393.580, 642.109 393.335, 639.360 391.470 C 635.292 388.709, 632 388.425, 627.379 390.437 M 139 396.383 C 139 400.926, 139.312 401.848, 141 402.290 C 142.910 402.789, 143 403.654, 143 421.406 C 143 439.333, 142.928 440, 141 440 C 139.243 440, 139 440.667, 139 445.481 C 139 450.513, 139.207 451.014, 141.535 451.598 C 145.477 452.588, 169.122 451.410, 172.723 450.045 C 178.576 447.826, 181.890 439.420, 180.518 430.272 C 179.978 426.668, 178.966 424.761, 176.221 422.172 C 173.076 419.206, 172.840 418.669, 174.315 417.843 C 178.723 415.377, 180.410 405.311, 177.560 398.490 C 174.877 392.069, 171.574 391.008, 154.250 391.004 L 139 391 139 396.383 M 187 396.383 C 187 400.926, 187.312 401.848, 189 402.290 C 190.908 402.789, 191 403.654, 191 421 C 191 438.346, 190.908 439.211, 189 439.710 C 187.286 440.159, 187 441.074, 187 446.117 L 187 452 195.918 452 C 207.864 452, 208 451.926, 208 445.393 C 208 440.667, 207.753 440, 206 440 C 204.242 440, 204 439.333, 204 434.500 C 204 429.920, 204.294 429, 205.757 429 C 207.003 429, 209.110 432.269, 213.007 440.250 L 218.500 451.500 224 451.500 L 229.500 451.500 229.800 445.750 C 230.042 441.113, 229.802 440, 228.562 440 C 227.661 440, 225.559 437.089, 223.478 432.957 L 219.932 425.914 222.888 422.958 C 226.872 418.974, 228.367 413.980, 227.717 406.819 C 227.326 402.499, 226.457 399.977, 224.460 397.358 C 220.279 391.877, 217.046 391, 201.032 391 L 187 391 187 396.383 M 249.116 394.750 C 248.588 396.813, 246.931 403.675, 245.435 410 C 239.352 435.711, 238.232 439.494, 236.601 439.823 C 235.348 440.076, 235 441.443, 235 446.112 L 235 452.078 243.750 451.789 L 252.500 451.500 252.800 445.750 C 253.045 441.048, 252.812 440, 251.519 440 C 249.368 440, 248.607 437.602, 249.958 435.078 C 250.909 433.302, 252.012 433, 257.560 433 C 263.618 433, 264.115 433.172, 265.032 435.584 C 266.133 438.481, 265.586 440, 263.441 440 C 262.346 440, 262 441.447, 262 446.035 L 262 452.070 272.250 451.785 L 282.500 451.500 282.796 445.879 C 283.047 441.112, 282.812 440.184, 281.248 439.775 C 279.098 439.213, 278.867 438.472, 272.349 411.255 L 267.500 391.010 258.789 391.005 L 250.077 391 249.116 394.750 M 350.836 398.215 C 344.831 425.640, 341.626 437.621, 339.881 439.160 C 338.462 440.413, 338 442.193, 338 446.410 L 338 452 345.418 452 C 355.716 452, 356 451.823, 356 445.393 C 356 440.611, 355.766 440, 353.937 440 C 352.211 440, 351.925 439.468, 352.187 436.750 L 352.500 433.500 359.410 433.201 C 366.761 432.882, 367.956 433.516, 367.985 437.750 C 367.996 439.357, 367.414 440, 365.950 440 C 364.086 440, 363.927 440.522, 364.200 445.750 L 364.500 451.500 374.750 451.785 L 385 452.070 385 446.445 C 385 442.222, 384.536 440.407, 383.139 439.160 C 381.500 437.698, 378.159 425.337, 371.067 394.500 L 370.378 391.500 361.405 391.215 L 352.432 390.931 350.836 398.215 M 467.123 409.250 C 460.531 437.169, 459.906 439.212, 457.783 439.767 C 456.182 440.186, 455.951 441.080, 456.204 445.879 L 456.500 451.500 465 451.500 L 473.500 451.500 473.800 445.750 C 474.048 441.002, 473.819 440, 472.487 440 C 471.269 440, 470.950 439.203, 471.187 436.750 L 471.500 433.500 478.410 433.201 C 485.761 432.882, 486.956 433.516, 486.985 437.750 C 486.996 439.357, 486.414 440, 484.950 440 C 483.086 440, 482.927 440.522, 483.200 445.750 L 483.500 451.500 493.750 451.785 L 504 452.070 504 446.152 C 504 441.358, 503.667 440.145, 502.250 439.770 C 500.875 439.406, 499.461 434.940, 495.646 418.903 C 492.976 407.682, 490.317 396.813, 489.737 394.750 L 488.683 391 480.058 391 L 471.432 391 467.123 409.250 M 508 396.467 C 508 401.333, 508.241 402, 510 402 C 511.930 402, 512 402.667, 512 421 C 512 439.488, 511.945 440, 509.950 440 C 508.086 440, 507.927 440.522, 508.200 445.750 L 508.500 451.500 517.500 451.500 L 526.500 451.500 526.796 445.879 C 527.057 440.925, 526.849 440.194, 525.046 439.722 C 523.106 439.215, 523.002 438.467, 523.039 425.344 C 523.086 408.724, 523.394 409.097, 530.606 434.507 C 534.991 449.953, 536.868 453.685, 539.043 451.283 C 539.817 450.429, 542.261 442.767, 546.470 428 C 551.668 409.764, 551.890 409.656, 551.948 425.344 C 551.997 438.472, 551.894 439.215, 549.954 439.722 C 548.151 440.194, 547.943 440.925, 548.204 445.879 L 548.500 451.500 558.250 451.786 L 568 452.072 568 446.153 C 568 441.074, 567.716 440.159, 566 439.710 C 564.092 439.211, 564 438.346, 564 421 C 564 403.654, 564.092 402.789, 566 402.290 C 567.688 401.848, 568 400.926, 568 396.383 L 568 391 557.647 391 L 547.293 391 543.559 405.250 C 541.506 413.087, 539.440 419.903, 538.968 420.395 C 538.479 420.905, 537.800 420.046, 537.387 418.395 C 536.990 416.803, 535.233 410.100, 533.485 403.500 L 530.305 391.500 519.152 391.217 L 508 390.934 508 396.467 M 574 396.383 C 574 400.926, 574.312 401.848, 576 402.290 C 577.908 402.789, 578 403.654, 578 421 C 578 438.483, 577.921 439.208, 575.954 439.722 C 574.151 440.194, 573.943 440.925, 574.204 445.879 L 574.500 451.500 593 451.500 L 611.500 451.500 611.788 442.250 L 612.075 433 607.101 433 C 602.220 433, 602.121 433.061, 601.813 436.250 C 601.508 439.419, 601.370 439.508, 596.250 439.802 L 591 440.105 591 433.052 L 591 426 598 426 L 605 426 605 420.500 L 605 415 598 415 L 591 415 591 408.445 L 591 401.890 595.745 402.195 C 600.147 402.478, 600.527 402.717, 601.005 405.500 C 601.487 408.311, 601.802 408.500, 606.010 408.500 L 610.500 408.500 610.789 399.750 L 611.078 391 592.539 391 L 574 391 574 396.383 M 156.667 402.667 C 156.300 403.033, 156 405.958, 156 409.167 L 156 415 159.277 415 C 164.118 415, 167 412.574, 167 408.500 C 167 406.134, 166.330 404.644, 164.777 403.557 C 162.513 401.970, 157.872 401.461, 156.667 402.667 M 204.667 402.667 C 204.300 403.033, 204 406.633, 204 410.667 L 204 418 207.277 418 C 212.495 418, 215.003 415.623, 214.985 410.693 C 214.966 405.624, 214.298 404.444, 210.665 403.063 C 207.447 401.839, 205.615 401.718, 204.667 402.667 M 254.635 412.912 C 253.610 417.261, 253.074 421.310, 253.444 421.910 C 254.294 423.284, 260.669 423.345, 261.508 421.987 C 261.853 421.430, 261.478 418.617, 260.676 415.737 C 259.874 412.857, 258.935 409.262, 258.590 407.750 C 258.244 406.238, 257.633 405.001, 257.231 405.002 C 256.829 405.003, 255.661 408.563, 254.635 412.912 M 357.317 413.212 C 356.213 417.770, 355.492 421.837, 355.714 422.250 C 356.171 423.099, 363.382 423.285, 364.198 422.469 C 364.924 421.743, 361.445 407.045, 360.268 405.868 C 359.675 405.275, 358.576 408.010, 357.317 413.212 M 477.180 408.623 C 474.673 418.691, 474.153 421.439, 474.617 422.190 C 474.893 422.635, 476.891 423, 479.059 423 C 483.725 423, 483.932 422.058, 481.351 412.566 C 479.212 404.694, 478.359 403.888, 477.180 408.623 M 156 432.630 L 156 440.260 160.689 439.732 C 166.183 439.112, 168 437.181, 168 431.964 C 168 427.180, 165.549 425, 160.171 425 L 156 425 156 432.630 M 356.150 466.340 C 353.866 468.771, 351.756 474.423, 352.758 475.425 C 354.195 476.862, 357.050 475.739, 359.030 472.959 C 360.823 470.440, 361.451 470.130, 362.684 471.153 C 365.169 473.215, 363.409 477.795, 357.446 484.781 C 353.799 489.053, 352.001 492.003, 352.199 493.390 C 352.480 495.358, 353.105 495.500, 361.500 495.500 L 370.500 495.500 370.807 491.250 C 371.092 487.323, 370.929 487, 368.664 487 C 367.317 487, 365.955 487.675, 365.638 488.500 C 365.046 490.043, 361 490.642, 361 489.187 C 361 488.740, 362.409 487.052, 364.130 485.437 C 368.397 481.433, 371.163 475.066, 370.366 471.081 C 369.055 464.525, 360.527 461.681, 356.150 466.340 M 378.009 466.837 C 374.724 470.122, 373.410 476.368, 374.343 484.251 C 375.676 495.507, 386.949 499.498, 393.082 490.885 C 395.704 487.203, 396.731 477.745, 395.059 472.679 C 392.329 464.407, 383.473 461.373, 378.009 466.837 M 402.856 466.990 C 400.693 469.153, 399.953 470.745, 400.183 472.740 C 400.650 476.805, 404.018 476.901, 406.266 472.914 C 407.732 470.314, 408.284 469.991, 409.516 471.013 C 412.316 473.337, 411.123 476.771, 404.954 484.136 C 401.025 488.827, 399.011 492.081, 399.204 493.428 C 399.476 495.329, 400.264 495.524, 408.750 495.788 L 418 496.075 418 491.538 C 418 487.752, 417.686 487, 416.107 487 C 415.066 487, 413.955 487.675, 413.638 488.500 C 413.125 489.837, 409 490.734, 409 489.509 C 409 489.238, 410.557 486.978, 412.459 484.485 C 418.377 476.733, 419.050 469.757, 414.244 465.977 C 410.552 463.073, 406.404 463.442, 402.856 466.990 M 426.250 472.474 C 423.913 477.112, 422 482.277, 422 483.953 C 422 486.943, 422.094 487, 427 487 C 430.778 487, 432 487.367, 432 488.500 C 432 489.325, 431.550 490, 431 490 C 430.450 490, 430 491.350, 430 493 C 430 495.936, 430.108 496, 435.031 496 C 440.796 496, 442.109 494.449, 439.883 490.269 C 438.798 488.232, 438.769 487.582, 439.750 487.253 C 441.517 486.660, 441.316 481.335, 439.500 480.638 C 438.339 480.193, 438 478.248, 438 472.031 L 438 464 434.250 464.022 C 430.555 464.043, 430.438 464.166, 426.250 472.474 M 382.388 471.458 C 379.830 473.329, 379.648 485.076, 382.138 487.567 C 384.349 489.778, 387.590 488.624, 388.764 485.209 C 389.740 482.366, 389.585 474.755, 388.514 473.023 C 387.130 470.783, 384.300 470.060, 382.388 471.458 M 429.199 475.527 C 426.477 481.129, 426.470 481, 429.500 481 C 431.833 481, 432 480.667, 432 476 C 432 473.250, 431.865 471, 431.699 471 C 431.534 471, 430.409 473.037, 429.199 475.527 M 316.632 476.046 C 315.651 477.706, 314.036 479, 312.943 479 C 310.589 479, 310.439 480.290, 312.586 482.072 C 313.652 482.956, 313.988 484.308, 313.611 486.194 C 313.012 489.190, 314.593 490.007, 316.773 487.827 C 317.670 486.930, 318.551 486.930, 320.520 487.827 C 324.089 489.453, 324.240 489.370, 323.535 486.159 C 323.108 484.213, 323.397 482.915, 324.456 482.037 C 326.585 480.270, 326.389 479, 323.985 479 C 322.826 479, 321.208 477.746, 320.174 476.046 L 318.377 473.091 316.632 476.046 M 470.673 476.377 C 469.727 477.820, 468.064 479, 466.977 479 C 464.608 479, 464.426 480.279, 466.544 482.037 C 467.603 482.915, 467.892 484.213, 467.465 486.159 C 466.789 489.238, 468.527 490.073, 470.825 487.775 C 471.792 486.808, 472.464 486.808, 474.011 487.775 C 476.932 489.599, 478.227 489.292, 477.484 486.951 C 477.103 485.750, 477.490 483.902, 478.417 482.486 C 480.416 479.435, 480.400 479, 478.288 479 C 477.346 479, 475.634 477.820, 474.483 476.377 L 472.392 473.753 470.673 476.377 M 277.309 478.656 C 276.104 479.920, 275.541 481.216, 276.059 481.536 C 276.576 481.856, 277 482.901, 277 483.859 C 277 485.171, 277.835 485.600, 280.392 485.600 C 282.781 485.600, 283.635 485.212, 283.280 484.287 C 283.003 483.565, 283.327 482.311, 284.001 481.499 C 284.996 480.299, 284.877 479.893, 283.363 479.324 C 282.338 478.939, 281.050 478.114, 280.500 477.491 C 279.774 476.668, 278.900 476.987, 277.309 478.656 M 510.269 477.380 C 509.846 478.079, 508.662 478.960, 507.637 479.337 C 506.123 479.895, 506.004 480.299, 506.999 481.499 C 507.673 482.311, 507.980 483.610, 507.682 484.386 C 507.280 485.435, 507.984 485.774, 510.424 485.705 C 512.998 485.632, 513.906 485.059, 514.624 483.056 C 515.367 480.984, 515.114 480.085, 513.289 478.305 C 511.589 476.647, 510.850 476.421, 510.269 477.380" stroke="none" fill="#292423" fill-rule="evenodd"/></svg>