<svg fill="#87888C" height="20" width="20" xmlns="http://www.w3.org/2000/svg" viewBox="0 0 20 20">
  <g stroke-width="0"/>
  <g stroke-linecap="round" stroke-linejoin="round"/>
  <path d="M11.055 9.877a4.943 4.943 0 0 0 4.938-4.938C15.993 2.215 13.778 0 11.055 0S6.117 2.215 6.117 4.938s2.215 4.938 4.938 4.938m11.627 8.654a5.59 5.59 0 0 0-5.585 5.585c0 3.079 2.505 5.585 5.585 5.585s5.585-2.505 5.585-5.585-2.505-5.585-5.585-5.585m3.402 4.425-3.649 3.649a.94.94 0 0 1-.665.275.94.94 0 0 1-.665-.275l-1.825-1.825a.94.94 0 0 1 1.329-1.329l1.16 1.16 2.985-2.985a.94.94 0 0 1 1.329 1.329"/>
  <path d="M20.675 17.272v-.871a4.35 4.35 0 0 0-2.994-4.131l-.008-.003-2.612-.433a.44.44 0 0 0-.54.269l-2.964 8.132a.536.536 0 0 1-1.006 0l-2.964-8.132a.44.44 0 0 0-.411-.288c-.043 0-2.741.451-2.741.451a4.38 4.38 0 0 0-3.004 4.157v6.766c0 1.014.822 1.836 1.836 1.836h12.341a7 7 0 0 1-.06-.91c0-3.236 2.167-5.974 5.126-6.843"/>
  <path d="M12.149 11.34a.62.62 0 0 0-.456-.19h-1.276a.6.6 0 0 0-.456.19.59.59 0 0 0-.078.697l.682 1.028-.319 2.693.629 1.673a.192.192 0 0 0 .361 0l.629-1.673-.319-2.693.682-1.028a.59.59 0 0 0-.078-.697"/>
</svg>
