<svg viewBox="0 0 20 20" fill="#87888C" class="icon" xmlns="http://www.w3.org/2000/svg" width="20" height="20">
  <g stroke-width="0"/>
  <g stroke-linecap="round" stroke-linejoin="round"/>
  <path d="M19.061 14.543a.156.156 0 0 1-.153-.129l-1.085-6.152a.156.156 0 0 1 .127-.181.157.157 0 0 1 .181.127l1.085 6.152a.156.156 0 0 1-.154.183m.163.923a.156.156 0 0 1-.153-.129c-.141-.797-3.194-.944-5.086-.849a.15.15 0 0 1-.164-.148.156.156 0 0 1 .148-.164c.529-.027 5.174-.221 5.409 1.106a.156.156 0 0 1-.127.181q-.014.003-.027.002"/>
  <path d="M13.217 10.181a.156.156 0 0 1-.153-.129.156.156 0 0 1 .127-.181c1.326-.234 4.714-1.146 4.47-2.533a.156.156 0 0 1 .127-.181.157.157 0 0 1 .181.127c.15.85-.615 1.598-2.275 2.223-1.19.448-2.436.67-2.448.672l-.027.003"/>
  <path d="M17.813 7.468a.156.156 0 0 1-.153-.129.156.156 0 0 1 .127-.181l.616-.108a.16.16 0 0 1 .181.127.156.156 0 0 1-.127.181l-.616.108-.027.002"/>
  <path d="M19.839 15.357a.156.156 0 0 1-.153-.129l-1.41-7.998a.156.156 0 0 1 .127-.181.156.156 0 0 1 .181.127l1.41 7.998a.156.156 0 0 1-.154.183"/>
  <path d="M19.224 15.466a.156.156 0 0 1-.027-.31l.615-.108a.156.156 0 0 1 .181.127.156.156 0 0 1-.127.181l-.615.108zm-8.323-.436a.156.156 0 0 1-.153-.129l-.76-4.306a.15.15 0 0 1 .026-.117.15.15 0 0 1 .101-.064l3.076-.542a.156.156 0 0 1 .181.127.156.156 0 0 1-.127.181l-2.922.515.705 3.999 2.922-.515a.155.155 0 0 1 .181.127.156.156 0 0 1-.127.181l-3.076.542q-.014.003-.027.002"/>
  <path d="m10.901 15.03-.032-.003-1.647-.344a.155.155 0 0 1-.122-.126l-.542-3.076a.16.16 0 0 1 .071-.16l1.429-.886a.16.16 0 0 1 .146-.01.16.16 0 0 1 .09.115l.76 4.306a.16.16 0 0 1-.045.139.16.16 0 0 1-.109.044m-1.511-.632 1.317.275-.679-3.852-1.144.71zm4.479-.525a.156.156 0 0 1-.153-.129l-.542-3.076a.156.156 0 0 1 .127-.181.155.155 0 0 1 .181.127l.542 3.076a.156.156 0 0 1-.154.183"/>
  <path d="M9.435 12.117a.156.156 0 0 1-.153-.129.157.157 0 0 1 .127-.181l.307-.054a.156.156 0 0 1 .181.127.156.156 0 0 1-.127.181l-.307.054zm.325 1.846a.156.156 0 0 1-.153-.129.156.156 0 0 1 .127-.181l.308-.054a.16.16 0 0 1 .181.127.157.157 0 0 1-.127.181l-.308.054zm-.16-.923a.156.156 0 0 1-.153-.129.156.156 0 0 1 .127-.181l.307-.054a.156.156 0 0 1 .181.127.156.156 0 0 1-.127.181l-.307.054zm.821-2.524a.156.156 0 0 1-.027-.31l.615-.109a.157.157 0 0 1 .181.127.156.156 0 0 1-.127.181l-.615.109q-.013.003-.027.002m4.677 8.532a.16.16 0 0 1-.139-.086l-1.465-2.913a.156.156 0 0 1 .279-.141l1.465 2.913a.156.156 0 0 1-.069.21.15.15 0 0 1-.07.017m-1.538.271a.16.16 0 0 1-.139-.086l-1.465-2.914a.156.156 0 0 1 .279-.141l1.465 2.914a.156.156 0 0 1-.069.21.15.15 0 0 1-.07.017"/>
  <path d="M13.252 19.373a.156.156 0 0 1-.153-.129.156.156 0 0 1 .127-.181l2.154-.38a.156.156 0 0 1 .181.127.156.156 0 0 1-.127.181l-2.155.38zm-1.881-3.474a.156.156 0 0 1-.153-.129l-.061-.346a.156.156 0 0 1 .127-.181.156.156 0 0 1 .181.127l.061.346a.156.156 0 0 1-.154.183"/>
  <path d="M11.371 15.899a.156.156 0 0 1-.154-.13.156.156 0 0 1 .128-.181l2.77-.479a.16.16 0 0 1 .181.128.156.156 0 0 1-.128.181l-2.77.479z"/>
  <path d="M14.141 15.42a.156.156 0 0 1-.153-.129l-.054-.307a.156.156 0 0 1 .127-.181.156.156 0 0 1 .181.127l.054.307a.156.156 0 0 1-.154.183m5.698-5.11a.156.156 0 0 1-.156-.156V.783a.156.156 0 0 1 .312 0v9.371a.156.156 0 0 1-.156.156M2.035 14.683a.156.156 0 0 1-.156-.156V.783a.156.156 0 0 1 .156-.156.156.156 0 0 1 .156.156v13.744a.156.156 0 0 1-.156.156"/>
  <path d="M1.098 15.62a.156.156 0 0 1-.156-.156.156.156 0 0 1 .156-.156c.431 0 .781-.35.781-.781a.156.156 0 0 1 .156-.156.156.156 0 0 1 .156.156c0 .603-.491 1.093-1.093 1.093"/>
  <path d="M1.098 15.62a1.094 1.094 0 0 1-1.093-1.093.156.156 0 0 1 .312 0c0 .431.35.781.781.781a.156.156 0 0 1 .156.156.156.156 0 0 1-.156.156"/>
  <path d="M.161 14.683a.156.156 0 0 1-.156-.156V1.72a.156.156 0 0 1 .312 0v12.807a.156.156 0 0 1-.156.156m1.249 0a.156.156 0 0 1-.156-.156V1.095a.156.156 0 0 1 .312 0v13.432a.156.156 0 0 1-.156.156m-.625 0a.156.156 0 0 1-.156-.156V1.408a.156.156 0 0 1 .156-.156.156.156 0 0 1 .156.156v13.119a.156.156 0 0 1-.156.156"/>
  <path d="M1.098 14.995a.156.156 0 0 1 0-.312.156.156 0 0 0 .156-.156.156.156 0 0 1 .312 0 .47.47 0 0 1-.469.469"/>
  <path d="M1.098 14.995a.47.47 0 0 1-.469-.469.156.156 0 0 1 .156-.156.156.156 0 0 1 .156.156.156.156 0 0 0 .156.156.156.156 0 0 1 0 .312m8.775.625H1.098a.156.156 0 0 1-.156-.156.156.156 0 0 1 .156-.156h8.775a.156.156 0 0 1 .156.156.156.156 0 0 1-.156.156M19.839.939H2.035a.156.156 0 0 1-.156-.156.156.156 0 0 1 .156-.156h17.804a.156.156 0 0 1 .156.156.156.156 0 0 1-.156.156M18.59 4.063H3.909a.156.156 0 0 1-.156-.156V2.033a.156.156 0 0 1 .156-.156H18.59a.156.156 0 0 1 .156.156v1.874a.156.156 0 0 1-.156.156M4.065 3.751h14.368V2.189H4.065z"/>
  <path d="M17.653 3.126H4.846a.156.156 0 0 1 0-.312h12.807a.156.156 0 0 1 0 .312m.312 12.494h-2.811a.156.156 0 0 1-.156-.156.156.156 0 0 1 .156-.156h2.811a.156.156 0 0 1 .156.156.156.156 0 0 1-.156.156M8.282 8.123H3.909a.156.156 0 0 1-.156-.156V5.156A.156.156 0 0 1 3.909 5h4.373a.156.156 0 0 1 .156.156v2.811a.156.156 0 0 1-.156.156m-4.217-.312h4.061V5.312H4.065z"/>
  <path d="M5.783 7.811a.156.156 0 0 1-.125-.25l.937-1.249a.157.157 0 0 1 .219-.031.156.156 0 0 1 .031.219l-.937 1.249a.16.16 0 0 1-.125.063"/>
  <path d="M7.657 7.811a.16.16 0 0 1-.125-.063l-.937-1.249a.156.156 0 0 1 .031-.219.156.156 0 0 1 .219.031l.937 1.249a.156.156 0 0 1-.125.25m-2.811 0a.156.156 0 0 1-.13-.243l.625-.937a.156.156 0 0 1 .217-.043.156.156 0 0 1 .043.217l-.625.937a.16.16 0 0 1-.13.07"/>
  <path d="M5.679 7.186a.16.16 0 0 1-.13-.07l-.208-.312a.156.156 0 0 1 .043-.217.157.157 0 0 1 .217.043l.208.312a.156.156 0 0 1-.13.243m-.833-.625a.47.47 0 1 1 .001-.94.47.47 0 0 1-.001.94m0-.625a.156.156 0 1 0 0 .312.156.156 0 0 0 0-.312m8.434-.623H9.219a.156.156 0 0 1 0-.312h4.061a.156.156 0 0 1 0 .312m0 .937H9.219a.156.156 0 0 1 0-.312h4.061a.156.156 0 0 1 0 .312m0 .937H9.219a.156.156 0 0 1 0-.312h4.061a.156.156 0 0 1 0 .312m0 .937H9.219a.156.156 0 0 1 0-.312h4.061a.156.156 0 0 1 0 .312m0 .937H9.219a.156.156 0 0 1 0-.312h4.061a.156.156 0 0 1 0 .312m-3.436.938h-.625a.156.156 0 0 1 0-.312h.625a.156.156 0 0 1 0 .312M8.297 9.06H3.924a.156.156 0 0 1 0-.312h4.373a.156.156 0 0 1 0 .312m-.625 3.749H3.924a.156.156 0 0 1 0-.312h3.748a.156.156 0 0 1 0 .312m.312.937h-4.06a.156.156 0 0 1 0-.312h4.061a.156.156 0 0 1 0 .312m.312.937H3.924a.156.156 0 0 1 0-.312h4.373a.156.156 0 0 1 0 .312m0-4.685H3.924a.156.156 0 0 1 0-.312h4.373a.156.156 0 0 1 0 .312m-.313.937h-4.06a.156.156 0 0 1 0-.312h4.061a.156.156 0 0 1 0 .312m-.313.937H3.924a.156.156 0 0 1-.156-.156.156.156 0 0 1 .156-.156h3.748a.156.156 0 0 1 .156.156.156.156 0 0 1-.156.156m10.918-6.56h-4.373a.156.156 0 0 1 0-.312h4.373a.156.156 0 0 1 0 .312m0 .937h-4.373a.156.156 0 0 1 0-.312h4.373a.156.156 0 0 1 0 .312m-1.562.937h-2.811a.156.156 0 0 1 0-.312h2.811a.156.156 0 0 1 0 .312m-.937.937h-1.874a.156.156 0 0 1 0-.312h1.874a.156.156 0 0 1 0 .312m-1.562.937h-.312a.156.156 0 0 1 0-.312h.312a.156.156 0 0 1 0 .312"/>
</svg>
