<svg fill="#87888C" height="20" width="20" xmlns="http://www.w3.org/2000/svg" viewBox="0 0 20 20" xml:space="preserve" stroke="#87888C" stroke-width=".004">
  <g stroke-width="0"/>
  <g stroke-linecap="round" stroke-linejoin="round" stroke="#CCC" stroke-width="1.68"/>
  <path d="M37 17.25h-9a4.97 4.97 0 0 0-3 1.002v-.002c0-2.757-2.243-5-5-5h-5a4.98 4.98 0 0 0-3.087 1.069A5.01 5.01 0 0 0 7 10.25H5c-2.757 0-5 2.243-5 5v7.5a1 1 0 0 0 1 1h9v6.5a1 1 0 0 0 1 1h12v9a1 1 0 0 0 1 1h17a1 1 0 0 0 1-1v-18c0-2.757-2.243-5-5-5zm3 22H25v-9a1 1 0 0 0-1-1H12v-6.5a1 1 0 0 0-1-1H2v-6.5c0-1.654 1.346-3 3-3h2c1.654 0 3 1.346 3 3v5h2v-2c0-1.654 1.346-3 3-3h5c1.654 0 3 1.346 3 3v9h2v-5c0-1.654 1.346-3 3-3h9c1.654 0 3 1.346 3 3z"/>
  <path d="M33 15.75c3.86 0 7-3.14 7-7s-3.14-7-7-7-7 3.14-7 7 3.14 7 7 7zm0-12c2.757 0 5 2.243 5 5s-2.243 5-5 5-5-2.243-5-5 2.243-5 5-5zm-15.5 8c2.757 0 5-2.243 5-5s-2.243-5-5-5-5 2.243-5 5 2.243 5 5 5zm0-8c1.654 0 3 1.346 3 3s-1.346 3-3 3-3-1.346-3-3 1.346-3 3-3zM6 8.75c2.206 0 4-1.794 4-4s-1.794-4-4-4-4 1.794-4 4 1.794 4 4 4zm0-6c1.103 0 2 .897 2 2s-.897 2-2 2-2-.897-2-2 .897-2 2-2z"/>
</svg>
