<svg fill="#87888C" xmlns="http://www.w3.org/2000/svg" viewBox="0 0 20 20" xml:space="preserve" width="20" height="20">
  <g stroke-width="0"/>
  <g stroke-linecap="round" stroke-linejoin="round"/>
  <path d="M16.667 6.167v8.75c0 1.417-1.083 2.5-2.5 2.5h-9.25c0 .917.75 1.667 1.667 1.667H15c1.833 0 3.333-1.5 3.333-3.333V7.833c0-.917-.75-1.667-1.667-1.667"/>
  <path d="M4.167.917v1.667h-.834c-.917 0-1.667.75-1.667 1.667v10c0 .917.75 1.667 1.667 1.667H13.5c.917 0 1.667-.75 1.667-1.667v-10c0-.917-.75-1.667-1.667-1.667h-.833V.917H11v1.667H5.833V.917zM3.334 6.75h10.167v7.5H3.333z"/>
  <path d="m11.417 13.583-2-1.167L7.5 13.583l.5-2.25-1.75-1.5 2.333-.167L9.5 7.5l.917 2.083 2.333.25-1.75 1.5z"/>
  <path d="M0 0h20v20H0z" style="fill:none"/>
</svg>
