<svg viewBox="0 0 20 20" data-name="Layer 1" id="Layer_1" xmlns="http://www.w3.org/2000/svg" fill="#87888C" width="20" height="20">
  <g id="SVGRepo_bgCarrier" stroke-width="0"/>
  <g id="SVGRepo_tracerCarrier" stroke-linecap="round" stroke-linejoin="round"/>
  <g id="SVGRepo_iconCarrier">
    <defs>
      <style>
        .cls-1{fill:#87888c}
      </style>
    </defs>
    <path class="cls-1" d="M10 16.734a5.313 5.313 0 0 1-4.547-8.028 5 5 0 0 1-.072-.822 4.619 4.619 0 0 1 9.237 0 5 5 0 0 1-.072.822A5.313 5.313 0 0 1 10 16.734M10 3.89a3.997 3.997 0 0 0-3.909 4.813.3.3 0 0 1-.044.231 4.688 4.688 0 1 0 7.906 0 .3.3 0 0 1-.044-.231A3.997 3.997 0 0 0 10 3.891m3.366 4.172a.3.3 0 0 1-.213-.081 4.67 4.67 0 0 0-6.306 0 .313.313 0 0 1-.525-.244 3.681 3.681 0 0 1 7.356 0 .31.31 0 0 1-.181.297.3.3 0 0 1-.131.028M10 6.131a5.3 5.3 0 0 1 2.931.884 3.056 3.056 0 0 0-5.863 0A5.3 5.3 0 0 1 10 6.131"/>
    <path class="cls-1" d="M13.366 8.063a.3.3 0 0 1-.213-.081 4.67 4.67 0 0 0-6.306 0 .313.313 0 0 1-.525-.244 3.681 3.681 0 0 1 7.356 0 .31.31 0 0 1-.181.297.3.3 0 0 1-.131.028M10 6.131a5.3 5.3 0 0 1 2.931.884 3.056 3.056 0 0 0-5.863 0A5.3 5.3 0 0 1 10 6.131"/>
    <path class="cls-1" d="M13.366 8.063a.3.3 0 0 1-.213-.081 4.67 4.67 0 0 0-6.306 0 .313.313 0 0 1-.525-.244 3.681 3.681 0 0 1 7.356 0 .31.31 0 0 1-.181.297.3.3 0 0 1-.131.028M10 6.131a5.3 5.3 0 0 1 2.931.884 3.056 3.056 0 0 0-5.863 0A5.3 5.3 0 0 1 10 6.131m.291 9.231h-.019c-3.747-.215-4.022-3.674-4.022-3.709a.313.313 0 1 1 .625-.037c0 .119.237 2.941 3.438 3.125a.313.313 0 0 1-.019.625Z"/>
  </g>
</svg>
