<svg viewBox="0 0 20 20" fill="none" xmlns="http://www.w3.org/2000/svg" width="20" height="20">
  <g stroke-width="0"/>
  <g stroke-linecap="round" stroke-linejoin="round"/>
  <g stroke="#87888C" stroke-width="1.25">
    <path d="M1.667 11.667c0-3.143 0-4.714.977-5.69S5.191 5 8.333 5h3.333c3.143 0 4.714 0 5.69.977s.977 2.547.977 5.69 0 4.714-.977 5.69-2.547.976-5.689.976H8.334c-3.143 0-4.714 0-5.69-.977s-.977-2.547-.977-5.689ZM13.333 5c0-1.572 0-2.357-.488-2.845S11.572 1.667 10 1.667s-2.357 0-2.845.488S6.667 3.428 6.667 5"/>
    <path d="M10 14.444c.921 0 1.667-.622 1.667-1.388s-.746-1.389-1.667-1.389-1.667-.622-1.667-1.389S9.079 8.89 10 8.89m0 5.555c-.921 0-1.667-.622-1.667-1.388M10 14.445V15m0-6.667v.556m0 0c.921 0 1.667.622 1.667 1.388" stroke-linecap="round"/>
  </g>
</svg>
